<?xml version="1.0" encoding="UTF-8"?>
<svg id="uuid-2683c491-71b3-45d3-a9c5-6f2c17d74d65" data-name="Слой 2" xmlns="http://www.w3.org/2000/svg" viewBox="0 0 122.21 165.16">
  <g id="uuid-ec6fb395-8421-4b5e-9353-d5c379627da6" data-name="OBJECTS">
    <g>
      <path d="m121.96,97.33c-.41-.03-.82-.06-1.23-.09,0,0,0,0,0,0,0,0,0,0,0,0-3.42-.21-6.88-.09-10.21.73-3.19.78-6.25,2.21-8.74,4.37-1.3,1.12-2.43,2.44-3.31,3.91-.15.17-.29.35-.43.53,0,.01,0,.03,0,.04-1.69,1.12-3.31,2.36-4.81,3.73.1-.21.19-.42.29-.63.45-1,.85-2.02,1.18-3.06.18-.55.33-1.11.47-1.67.11-.37.2-.75.26-1.14.25-1.16.43-2.34.53-3.52.37-4.3-.18-8.64-1.68-12.69-.81-2.19-1.84-4.32-3.27-6.17,0-.02.01-.05.02-.07.14-.33-.38-.55-.52-.21-1.32,3.22-.06,6.64,1.09,9.7,1.22,3.26,2.04,6.62,2.36,10.1.09.99.15,1.99.15,2.99,0,.95-.11,1.92-.04,2.87,0,.04.03.06.06.07-.25.75-.51,1.5-.82,2.23-.23.55-.48,1.1-.74,1.64-.05.11-.1.21-.16.31-.43.42-.85.84-1.26,1.28-.96,1.04-1.87,2.13-2.68,3.29-.59.85-1.18,1.75-1.65,2.69-.66-3.72-1.77-7.36-3.28-10.83-.13-.61-.27-1.22-.4-1.83-.08-2.57.08-5.15.26-7.71.21-3.04.43-6.11.13-9.15-.09-.86-.21-1.71-.4-2.55-.15-.68-.33-1.38-.61-2.03-.01-.13-.03-.26-.06-.38-.02-.07-.13-.1-.15-.02,0,0,0,0,0,0-.05-.01-.12.02-.1.08.01.07.03.13.04.2-.14.68-.14,1.39-.21,2.07-.09.82-.19,1.64-.3,2.46-.22,1.6-.48,3.2-.68,4.8-.35,2.89-.5,5.86.14,8.73.1.43.22.86.35,1.28-.18-.32-.34-.64-.53-.95-.57-.97-1.18-1.92-1.81-2.84.01-.02.02-.03,0-.06-.72-1.34-1.68-2.53-2.54-3.77-.43-.62-.85-1.25-1.28-1.87-.43-.65-.83-1.38-1.35-1.95-.05-.06-.14-.03-.16.02-.78-.88-1.27-1.9-1.44-3.09-.21-1.41.02-2.83.42-4.19.46-1.55,1.1-3.03,1.59-4.56.48-1.5.82-3.04,1.02-4.6.41-3.19.22-6.47-.58-9.59-.74-2.89-1.97-5.62-3.15-8.36-1.33-3.1-2.56-6.25-3-9.62,0-.04-.02-.06-.05-.08,0,0,0-.02,0-.03,0-.11-.15-.13-.17-.02,0,.03,0,.05-.01.08,0,0-.01.01-.01.03,0,.03,0,.05,0,.08-.23,1.31-.34,2.65-.48,3.98-.15,1.39-.29,2.78-.44,4.17-.3,2.8-.62,5.59-.92,8.39-.3,2.76-.65,5.52-.89,8.29-.23,2.63-.31,5.31.22,7.91.25,1.24.63,2.46,1.17,3.61.17.37.37.74.58,1.11-3.33-4-6.42-8.15-8.85-12.8-1.1-2.11-2.08-4.29-2.94-6.51.16-4.19.76-8.37,1.85-12.42.17-.64.36-1.27.56-1.9.07-.22.15-.44.24-.66.23.05.47.03.7-.06.54-.21.87-.8.74-1.37-.07-.3-.21-.56-.44-.75-.25-.21-.57-.3-.89-.29-.31.01-.6.16-.81.39-.2.23-.29.54-.27.84,0,.14.05.27.12.38.02.08.04.15.08.22.07.14.16.26.27.36-.05.17-.1.35-.16.51-.18.56-.34,1.12-.5,1.69-.32,1.14-.6,2.28-.83,3.44-.46,2.31-.76,4.64-.89,6.99-.03.63-.05,1.25-.05,1.88-2.04-5.49-3.32-11.27-3.78-17.11,2.1-5.28,6.15-9.74,11.24-12.28.89-.44,1.8-.82,2.74-1.15.56.43,1.22.77,1.83,1.1.77.41,1.56.79,2.36,1.14,1.56.67,3.18,1.21,4.83,1.63,3.58.9,7.23,1.05,10.9.99,1.11-.02,2.22-.05,3.33-.04.53,0,1.06,0,1.59,0,.48,0,1.01.04,1.47-.1.06.02.12.04.19.06.32.08.44-.44.14-.55-.99-.37-1.84-.91-2.6-1.66-.78-.76-1.42-1.65-2.08-2.51-.67-.87-1.36-1.72-2.2-2.44-.74-.63-1.56-1.16-2.44-1.59-3.64-1.78-7.91-1.68-11.62-.14-2.04.84-3.91,2.07-5.51,3.59-.1.03-.19.06-.29.09-.03-.01-.05-.03-.08-.04-.1-.04-.18.04-.18.13-3.35,1.22-6.42,3.17-8.94,5.75-1.98,2.03-3.6,4.41-4.75,7-.2-3.2-.16-6.42.14-9.62,4.29-3.25,8.54-6.76,11.41-11.4,1.38-2.24,2.36-4.67,2.8-7.27.49-2.9.43-5.87.74-8.79.35-3.31,1-6.6,1.97-9.79.03-.11,0-.21-.06-.28.17-.22-.13-.57-.38-.37-.31.25-.61.51-.92.76-1.97,1.09-3.75,2.57-5.33,4.15-1.9,1.9-3.55,4.03-5.01,6.29-3.18,4.92-5.76,10.48-6.52,16.33-.44,3.37-.25,6.81.73,10.07-.33,3.41-.37,6.84-.14,10.26-.77-.25-1.52-.56-2.2-.99-.85-.53-1.61-1.17-2.36-1.84-1.53-1.37-2.97-2.81-4.79-3.81-3.41-1.86-7.5-2.2-11.16-.91-1.86.65-3.56,1.69-4.99,3.04-.02,0-.03.01-.05.02-.03.01-.04.04-.04.07-.09.08-.17.16-.26.25-.11.11-.08.29.09.31,3.11.51,6.04,1.78,9.08,2.56,3.04.78,6.18,1.19,9.33,1.21,1.7.01,3.4-.09,5.09-.3.77.35,1.54.7,2.32,1.04,0,.07,0,.14.01.2,0,0,0,0,0,0-.03.07-.02.14.02.19.51,6.1,1.89,12.13,4.11,17.87.08.21.17.41.25.62,0,.1,0,.21,0,.31,0,.08.09.1.15.08,2.14,5.28,5,10.24,8.45,14.77.09.12.18.23.28.35-1.08-.78-2.19-1.53-3.29-2.26-1.81-1.21-3.65-2.38-5.5-3.52-2.47-1.52-4.98-2.99-7.5-4.42.02-.03.03-.07.03-.11-.01-.18-.03-.37-.06-.55.03-.59-.06-1.22-.1-1.79-.06-.79-.14-1.58-.24-2.37-.21-1.55-.54-3.08-1.02-4.57-.93-2.86-2.45-5.44-4.24-7.85-.5-.67-1.01-1.34-1.54-1.99-.43-.53-.84-1.08-1.31-1.58-.04-.09-.08-.18-.12-.26-.03-.06-.1-.03-.11.02-.03-.03-.06-.07-.09-.1-.16-.16-.37.1-.26.26.07.11.15.21.22.32.16.61.37,1.2.5,1.82.16.75.28,1.51.37,2.28.19,1.58.26,3.17.46,4.74.19,1.54.51,3.07,1.12,4.5.59,1.37,1.43,2.63,2.38,3.78.54.65,1.11,1.27,1.7,1.87.21.21.42.43.63.64-.69-.38-1.38-.77-2.07-1.15-3.82-2.08-7.68-4.07-11.57-6-3.86-1.92-7.73-3.87-11.68-5.61-3.85-1.7-7.96-3.26-12.18-3.62-.54-.05-1.08-.07-1.62-.08-.22,0-.28.33-.04.35,4.24.52,8.31,1.75,12.24,3.4,3.96,1.66,7.8,3.6,11.65,5.51.71.35,1.41.71,2.12,1.06-1.82-.46-3.72-.63-5.59-.6-2.88.05-5.73.63-8.43,1.61-5.27,1.92-9.81,5.47-13.49,9.64-1.03,1.17-1.98,2.41-2.89,3.68-.8,1.12-1.61,2.27-2.28,3.48-.06.07-.13.13-.19.21-.03.03,0,.07.02.09-.03.06-.07.12-.1.18,0,.02,0,.03,0,.05-.14.25-.28.5-.42.76-.02.03-.02.06,0,.09-.11.12.05.3.19.2,4.38-3.09,9.34-5.19,14.3-7.14,4.83-1.89,9.72-3.69,14.25-6.23,2.16-1.21,4.18-2.61,6.06-4.21.02,0,.04,0,.06,0,.11-.01.17-.09.18-.17,0,0,0,0,0,0,.05-.02.07-.04.09-.07.41-.02.82-.03,1.23-.04,2.14,1.09,4.27,2.2,6.39,3.33,1.52.82,3.03,1.65,4.54,2.49.03.04.06.09.09.13.06.08.16.09.23.05,2.16,1.21,4.31,2.45,6.44,3.73,3.7,2.23,7.31,4.6,10.89,7.03.22.15.45.29.67.43.3.38.61.76.92,1.13-1.64-1.32-3.63-2.2-5.65-2.76-2.65-.74-5.41-.9-8.15-.73-2.79.18-5.56.67-8.26,1.34-2.56.63-5.08,1.44-7.52,2.42-2.77,1.11-5.44,2.46-7.99,4.01-.14.08-.09.32.05.37,4.94,1.73,10.28,2.12,15.43,1.22,4.97-.86,9.7-2.7,14.62-3.76,2.73-.59,5.52-.93,8.31-.71.11,0,.19-.03.26-.09,2.81,3.35,5.74,6.6,8.41,10.06-.39-.19-.78-.36-1.18-.52-1.06-.41-2.17-.72-3.28-.94-2.46-.49-4.98-.53-7.48-.41-.73.04-1.46.09-2.19.15-.76.07-1.54.11-2.29.26-.06.01-.08.09-.05.13-.01.03-.02.06,0,.09.32.43.84.7,1.3.94.51.27,1.06.49,1.61.66,1.11.35,2.26.52,3.42.6,2.66.17,5.32-.17,7.97.02.7.05,1.4.14,2.09.28.36.07.71.16,1.06.27.07.02.15.05.22.07,3.27,4.54,5.86,9.46,7.48,14.85.05.17.1.35.15.52-.44-.5-.89-.99-1.33-1.47-.73-.79-1.46-1.58-2.21-2.35-.44-.46-.9-.91-1.35-1.36.06-.05.1-.13.08-.23-.09-.31-.28-.56-.46-.82-.18-.27-.36-.53-.53-.8-.37-.58-.74-1.17-1.08-1.78-.61-1.08-1.18-2.18-1.69-3.31,0,0,0,0,.01,0,.1-.09.19-.2.23-.33.03-.11.04-.19.04-.31,0-.07-.02-.14-.04-.2-.07-.24-.28-.45-.51-.55-.22-.1-.5-.08-.71.04,0,0-.01,0-.02.01-.03.02-.06.03-.08.05-.02.01-.03.03-.04.04-.02.01-.04.02-.05.04-.09.09-.16.19-.2.32-.09.27-.07.57.12.8.09.11.21.19.34.24,0,0,0,0,0,0,.05.02.11.04.16.04.03,0,.06.01.09.01,0,0,.01,0,.02,0,.02,0,.04,0,.06,0,.04,0,.08,0,.12,0,.09,0,.17-.03.25-.06.47,1.16.96,2.29,1.53,3.4.3.59.6,1.17.93,1.74.1.18.2.35.31.53-.7-.68-1.4-1.36-2.12-2.02-.9-.84-1.83-1.66-2.77-2.46-.08-.07-.17.06-.1.13,3.09,2.99,6.1,6.07,8.96,9.29.81.91,1.58,1.86,2.42,2.75,0,0,0,0,.01.01,1.37,5.38,1.79,11,1.24,16.52,0,.04-.01.09-.02.13-.1-.36-.23-.72-.38-1.07-.18-.82-.4-1.63-.65-2.43-.68-2.22-1.59-4.37-2.72-6.39-2.27-4.08-5.34-7.7-9.02-10.57-2.05-1.59-4.34-3.05-6.8-3.93-.12-.04-.19.05-.19.14-.1.01-.15.17-.06.23.4.27.83.5,1.22.77.41.28.8.6,1.17.94.73.68,1.36,1.46,1.93,2.27,1.26,1.81,2.17,3.82,3.28,5.72.56.96,1.18,1.88,1.89,2.74.7.84,1.46,1.62,2.25,2.37,1.55,1.49,3.21,2.88,4.63,4.49.25.28.48.57.72.86.19.33.37.66.61.95.04.05.08.07.13.07.21.32.41.64.6.97.32.6.57,1.22.77,1.85.13.67.24,1.34.37,2.01-1.6,10.76-7.06,20.68-15.04,28.06-1.01.93-2.07,1.83-3.14,2.69-.28.22.05.64.34.44,7.53-5.35,13.2-13.33,16.34-22.05.78-.52,1.52-1.1,2.28-1.64.82-.58,1.66-1.14,2.51-1.68,1.72-1.08,3.49-2.07,5.32-2.96,1.03-.5,2.11-.92,3.1-1.49.1-.06.08-.26-.06-.22-.97.25-1.89.69-2.78,1.11-.93.44-1.84.9-2.74,1.39-.2.11-.4.22-.6.34.17-.48.32-.97.45-1.47.08-.29.15-.58.23-.87.05-.19.1-.37.15-.56.04,0,.08,0,.12,0,.28-.04.57-.21.73-.45.09-.13.15-.29.16-.45,0-.22-.05-.41-.17-.6-.21-.32-.66-.51-1.02-.34-.09.04-.17.1-.23.17-.09.07-.16.16-.2.27-.01.03-.02.06-.02.08,0,.01-.02.02-.03.04-.08.13-.14.28-.15.44,0,.18.03.34.13.5.04.07.1.13.16.17-.05.2-.09.4-.14.59l-.2.87c-.14.58-.26,1.16-.33,1.76,0,.02,0,.03.01.04-1.46.83-2.89,1.73-4.26,2.7-.75.53-1.51,1.08-2.21,1.68.55-1.59,1.03-3.2,1.41-4.83.45-1.93.76-3.89.96-5.86,2.28-1.97,5.29-2.83,8.27-2.93,3.81-.13,7.49,1.01,11.08,2.14,1.94.61,4.02,1.18,6.04.67.18-.05.19-.28.06-.35-1.9-3.32-5.81-4.79-9.45-5.1-2.05-.17-4.13-.05-6.16.22-1.79.23-3.58.62-5.26,1.28-.92.36-1.8.8-2.63,1.33-.42.27-.83.57-1.21.9-.21.18-.42.35-.61.54.27-3.77.1-7.58-.52-11.32.56-.89,1.09-1.79,1.7-2.65.37-.52.75-1.03,1.14-1.53,1.92-.91,3.91-1.67,5.95-2.25.03.03.07.06.12.08,2.85.9,5.79,1.46,8.77,1.7,1.48.12,2.97.16,4.46.13,1.42-.03,2.87-.11,4.28-.34,1.2-.2,2.44-.63,3.05-1.76.07-.13-.02-.35-.16-.39-3.48-.98-7.09-1.44-10.7-1.39-3.61.06-7.22.65-10.66,1.75-1.58.5-3.11,1.14-4.6,1.87.23-.28.46-.57.71-.84.27-.3.55-.58.82-.87.03.03.08.03.12,0,.13-.16.25-.33.37-.5,1.35-1.35,2.82-2.58,4.37-3.71.62-.45,1.25-.88,1.89-1.3,1.53.51,3.21.59,4.8.47,1.7-.12,3.38-.5,4.99-1.04,3.32-1.12,6.32-2.98,9.12-5.06,1.59-1.19,3.13-2.45,4.66-3.72.19-.16.12-.5-.15-.53Zm-31.12-15.25c.93,1.67,1.84,3.36,2.55,5.13.79,1.97,1.38,4.02,1.74,6.11.37,2.14.49,4.3.38,6.45-.09-1.08-.26-2.16-.5-3.21-.72-3.21-1.98-6.26-2.94-9.4-.51-1.67-.91-3.36-1.23-5.07,0,0,0,0,0,0Zm3.02,14.82c-.32-1.66-.78-3.3-1.34-4.9-.57-1.64-1.27-3.24-1.68-4.93-.35-1.43-.48-2.95-.16-4.39.41,2.87,1.45,5.65,2.33,8.39.99,3.1,1.92,6.29,2.08,9.56.07,1.36-.05,2.71-.28,4.04-.1.45-.21.89-.34,1.33-.03.09-.06.18-.09.27.07-.61.08-1.24.09-1.84.02-.82.02-1.64-.02-2.45-.07-1.71-.27-3.41-.6-5.08Zm-7.44-62.36s.08.02.11.02c.23.28.46.56.68.85.74.97,1.52,2.08,2.46,2.97-2.23-1.28-4.57-2.4-6.97-3.28-3.07-1.13-6.28-1.78-9.56-1.71-1.51.03-3.01.21-4.47.53,4.33-1.29,8.93-1.54,13.39-.66,1.49.29,2.96.71,4.37,1.29Zm-9.5-4.2c1.96-.04,3.93.36,5.71,1.19.87.4,1.68.92,2.42,1.53.29.24.55.49.81.75-2.34-.78-4.76-1.31-7.22-1.45-2.72-.16-5.48.08-8.13.72-1.2.29-2.36.67-3.5,1.13,2.87-2.21,6.25-3.79,9.92-3.86Zm-4.82,3.54c3.24-.22,6.47.28,9.55,1.31,1.72.58,3.38,1.3,5.02,2.09,1.24.6,2.44,1.25,3.65,1.9-.68-.12-1.4-.14-2.08-.21-.8-.09-1.61-.18-2.41-.28-1.57-.2-3.13-.42-4.68-.67-3.15-.51-6.29-1.13-9.4-1.85-.88-.2-1.75-.42-2.63-.64-.44-.11-.87-.22-1.31-.33-.2-.05-.4-.11-.6-.15-.24-.05-.48-.04-.72-.08-.05-.01-.08.08-.02.09.2.07.37.18.56.26.19.07.39.12.59.18.38.1.75.21,1.13.31.76.2,1.53.39,2.3.57,1.57.38,3.15.73,4.73,1.06,3.15.65,6.31,1.19,9.5,1.63.89.12,1.79.24,2.68.35.14.02.28.04.43.06-.6.02-1.2.03-1.8.05-1.89.05-3.78.06-5.66-.06-3.47-.21-6.88-.94-10.1-2.24-.89-.36-1.77-.75-2.62-1.18-.43-.22-.85-.45-1.27-.67-.21-.11-.42-.23-.63-.35,1.87-.61,3.82-.99,5.79-1.13Zm-36.29,6.2c1.93.1,3.82.6,5.55,1.48,1.79.91,3.22,2.28,4.69,3.62-4.8-2.25-10-4.41-15.39-3.67-.73.1-1.46.26-2.16.48-.18.05-.36.11-.53.17,2.33-1.47,5.09-2.23,7.85-2.08Zm-8.82,2.75c.47-.19.93-.39,1.42-.54.65-.2,1.32-.35,2-.45,1.31-.2,2.64-.23,3.96-.12,2.79.24,5.5,1.1,8.07,2.19,1.49.63,2.95,1.35,4.42,2.04.03.02.06.02.09.01.17.14.34.29.51.43-1.98-.89-3.97-1.76-6.02-2.49-3.27-1.17-6.72-1.94-10.21-1.77-1.54.07-3.04.36-4.47.88.08-.06.16-.12.24-.18Zm-.73.59c3.07-1.03,6.39-1.13,9.57-.6,3.23.54,6.31,1.71,9.31,3.01-4.66-1.35-9.49-2.12-14.33-2.3-.84-.03-1.68-.05-2.52-.04-.72,0-1.47,0-2.19.08.05-.05.1-.1.16-.14Zm13.43,3.73c-1.57-.18-3.13-.46-4.67-.83-1.51-.37-2.99-.85-4.48-1.32-1.51-.48-3.04-.9-4.6-1.19.69.03,1.4-.01,2.09-.01.73,0,1.46.01,2.19.03,1.5.05,2.99.15,4.48.31,3,.32,5.97.87,8.88,1.65,1.51.4,3,.88,4.48,1.39-2.78.29-5.59.28-8.38-.04Zm26.88-38.09c-.19,1.44-.31,2.89-.39,4.34-.08,1.47-.13,2.94-.3,4.4-.16,1.38-.43,2.74-.89,4.05-.42,1.21-.96,2.38-1.59,3.49-1.28,2.3-2.97,4.36-4.81,6.23-1.29,1.31-2.67,2.54-4.07,3.74.09-.09.19-.18.28-.27.93-.89,1.8-1.83,2.61-2.83,1.65-2.03,3.04-4.26,4.14-6.63,2.28-4.93,3.35-10.29,4.49-15.56.43-2,.89-3.99,1.42-5.96-.36,1.65-.67,3.31-.88,4.99Zm-2.45,7.56c-1.28,5.18-3.1,10.24-6.33,14.55-.87,1.16-1.82,2.26-2.84,3.29-.93.93-1.93,1.77-2.94,2.62,0-.01,0-.02,0-.04.77-.8,1.43-1.72,2.1-2.59.79-1.02,1.56-2.05,2.3-3.11,1.43-2.06,2.73-4.23,3.72-6.55,1.06-2.48,1.68-5.11,2.26-7.73.57-2.62,1.18-5.25,2.07-7.78.82-2.35,1.84-4.63,2.99-6.84-1.35,4.67-2.17,9.47-3.34,14.19Zm-.71-9.26c-1.18,2.11-2.25,4.3-3.18,6.53-1.99,4.79-3.65,9.69-5.35,14.58-.49,1.4-.99,2.8-1.5,4.19-.38,1.03-.81,2.06-1.19,3.1,1.38-10.53,5.47-20.7,11.73-29.27-.17.29-.34.58-.51.87Zm2.04-2.41c.35-.54.71-1.06,1.08-1.58-.75,1.56-1.42,3.15-2.02,4.77-.91,2.49-1.61,5.01-2.21,7.59-.61,2.64-1.17,5.31-2.13,7.85-.9,2.38-2.16,4.62-3.56,6.73-.78,1.17-1.61,2.31-2.46,3.44-.44.58-.88,1.15-1.32,1.72-.14.18-.27.35-.41.53.38-.89.7-1.8,1.03-2.7.46-1.25.91-2.51,1.35-3.77.87-2.48,1.72-4.97,2.61-7.45,1.68-4.67,3.56-9.28,5.96-13.63.66-1.19,1.35-2.36,2.09-3.5Zm.66-1.92c-6.97,8.07-11.73,18.1-13.84,28.52-.23,1.13-.42,2.27-.58,3.41,0-.69.03-1.39.07-2.08.08-1.41.22-2.83.43-4.23.42-2.87,1.12-5.69,2.13-8.4,1.84-4.97,4.54-9.68,8.02-13.68,1.36-1.56,2.82-3.02,4.37-4.38-.21.28-.41.56-.61.85Zm-14.58,33.04s0,.09,0,.13c0,.06-.02.12-.02.18-1.34-5.46-.43-11.25,1.61-16.44,1.05-2.69,2.39-5.26,3.91-7.71,1.38-2.23,2.94-4.35,4.74-6.26.99-1.06,2.06-2.05,3.21-2.94.11-.08.22-.16.33-.24-2.84,2.72-5.32,5.8-7.37,9.15-2.92,4.78-4.83,10.12-5.8,15.63-.28,1.62-.48,3.26-.57,4.91-.04.81-.07,1.63-.07,2.45,0,.38,0,.76.02,1.14ZM2.5,81.76c.78-1.01,1.63-1.97,2.53-2.88,1.81-1.83,3.85-3.44,6.02-4.83,4.76-3.04,10.2-4.93,15.75-5.92,1.93-.35,3.87-.58,5.82-.73-4.24.72-8.41,1.87-12.4,3.44-4.69,1.85-9.18,4.36-13.25,7.34-1.14.84-2.26,1.72-3.34,2.64-.39.33-.79.67-1.18,1.01.02-.02.03-.05.05-.07Zm-.8,1.11c.58-.53,1.15-1.08,1.74-1.59.95-.82,1.93-1.61,2.94-2.37,2.01-1.52,4.13-2.91,6.32-4.17,4.35-2.49,9.06-4.41,13.9-5.71,1.95-.52,3.92-.93,5.91-1.23-4.22,1.41-8.41,2.9-12.51,4.61-4.58,1.91-9.03,4.14-13.17,6.87-1.98,1.3-3.87,2.73-5.63,4.31.16-.25.33-.49.5-.73Zm20.6-8.51c-4.84,2.05-9.85,3.72-14.6,5.98-2.47,1.17-4.84,2.49-7.05,4.1.1-.15.2-.29.29-.44,3.58-2.95,7.45-5.52,11.56-7.67,4.56-2.39,9.34-4.33,14.17-6.09,2.41-.87,4.84-1.69,7.27-2.52-3.45,2.85-7.55,4.91-11.65,6.65Zm12.82-7.66c-5.49.22-10.98,1.1-16.16,2.95-5.04,1.8-9.77,4.58-13.63,8.32-.59.57-1.17,1.17-1.73,1.8.59-.79,1.2-1.57,1.84-2.33,1.77-2.09,3.71-4.04,5.87-5.73,4.41-3.46,9.74-5.76,15.36-6.14,2.91-.2,5.77.19,8.54,1.03,0,0,0,0,0,0-.04.03-.07.07-.11.1Zm9.8,2.71c-.98-1.12-1.88-2.33-2.52-3.68-1.29-2.68-1.35-5.69-1.64-8.6.32,1.28.68,2.56,1.08,3.82.89,2.75,1.98,5.39,3.24,7.98.24.49.49.97.75,1.45-.31-.32-.61-.64-.9-.98Zm1.98,2.05c-.08-.13-.16-.26-.23-.4-.34-.6-.67-1.21-1-1.82-.68-1.27-1.28-2.57-1.85-3.89-1.14-2.63-2.06-5.34-2.77-8.12-.3-1.18-.53-2.38-.78-3.57.29.73.6,1.46.89,2.19.54,1.36,1.09,2.73,1.63,4.09,1.07,2.73,2.15,5.47,3.23,8.2.53,1.33,1.05,2.67,1.58,4-.23-.22-.46-.45-.69-.67Zm-5.34-15.16c-.3-.75-.6-1.51-.91-2.26-.08-.2-.16-.4-.24-.59.06.07.12.14.17.21.04.05.08.1.12.15,1.28,2.08,2.49,4.2,3.5,6.43,1.14,2.53,2.09,5.16,2.77,7.85.19.76.36,1.52.51,2.29.06.29.1.58.15.88-2.01-4.99-4.07-9.97-6.08-14.97Zm5.86,12.2c-.35-1.35-.75-2.68-1.21-4-.91-2.64-2.05-5.2-3.4-7.65-.22-.39-.44-.78-.66-1.17.79,1.06,1.53,2.14,2.21,3.27.76,1.26,1.42,2.58,1.92,3.96.54,1.47.89,3,1.13,4.54.11.72.2,1.45.27,2.17-.09-.38-.17-.76-.27-1.14Zm5.58,20.25c-2.43.71-4.87,1.43-7.35,1.94-2.51.52-5.07.78-7.64.69-1.82-.06-3.62-.3-5.4-.69.21.01.41.02.62.03,1.23.04,2.46-.02,3.68-.16,2.54-.29,5.03-.91,7.5-1.56,2.49-.65,4.97-1.31,7.51-1.74,2.53-.43,5.09-.7,7.65-.83,1.28-.06,2.56-.08,3.84-.06-3.53.37-6.99,1.38-10.4,2.37Zm.07-2.12c-2.54.42-5.04,1-7.52,1.65-2.46.65-4.92,1.33-7.43,1.73-1.4.22-2.82.36-4.23.36-.71,0-1.43-.04-2.14-.12-.37-.04-.74-.1-1.11-.15.83-.03,1.67-.14,2.48-.23,1.24-.14,2.47-.32,3.7-.53,2.48-.43,4.94-.98,7.4-1.52,4.88-1.09,9.8-2.18,14.82-2.34,1.83-.06,3.66.02,5.48.26-3.83-.05-7.66.26-11.44.88Zm-21.84,3.06c.59-.15,1.17-.34,1.73-.5,1.14-.34,2.27-.72,3.4-1.11,2.31-.8,4.61-1.64,6.97-2.26,4.72-1.25,9.68-1.72,14.55-1.35,1.51.11,3.01.3,4.5.56-3.26-.17-6.54.14-9.76.66-4.99.81-9.86,2.16-14.82,3.1-1.37.26-2.75.49-4.13.66-.7.09-1.4.17-2.11.23-.11,0-.22.02-.33.02Zm20.23-5.64c-2.44.19-4.87.58-7.24,1.16-2.37.58-4.68,1.38-6.98,2.19-1.28.45-2.56.9-3.85,1.3-.67.21-1.35.41-2.03.59-.36.1-.72.18-1.07.28,4.19-2.45,8.71-4.35,13.4-5.58,2.6-.68,5.26-1.18,7.93-1.43,2.75-.25,5.56-.2,8.26.41,1.87.42,3.63,1.14,5.26,2.1-4.47-1.04-9.1-1.39-13.67-1.02Zm16.35.56c-.51-1.01-.88-2.1-1.14-3.2-.59-2.52-.58-5.14-.41-7.71.19-2.71.49-5.42.76-8.12.27-2.72.52-5.45.79-8.17l.47-4.63c.05-.46.1-.92.15-1.39,0,.43,0,.86,0,1.28,0,1.49.02,2.98.03,4.47.02,2.94.04,5.88.08,8.83.04,2.96.07,5.92.11,8.88l.05,4.47c.02,1.45.02,2.91.16,4.36.11,1.18.32,2.37.68,3.52-.62-.84-1.26-1.64-1.73-2.58Zm1.62-.45c-.17-1.4-.2-2.82-.22-4.23-.02-1.45-.04-2.9-.06-4.35-.08-5.84-.16-11.68-.27-17.53-.03-1.62-.06-3.25-.1-4.87-.02-.98-.03-1.96-.07-2.94.38,2.31,1.17,4.54,2.03,6.71.29.73.59,1.45.88,2.17,0,.03,0,.06,0,.09,1.08,5.18-.16,10.41-1.06,15.51-.83,4.66-1.34,9.48.25,14.04.04.1.08.2.12.3-.84-1.5-1.29-3.19-1.5-4.92Zm.72-1.19c-.16-5.18,1.36-10.2,2-15.3.29-2.31.4-4.66.11-6.98.63,1.56,1.22,3.13,1.67,4.75.52,1.87.82,3.79.92,5.73-.07.29-.15.59-.23.88-.2.7-.43,1.4-.66,2.09-.45,1.35-.93,2.69-1.36,4.05-.82,2.6-1.46,5.26-1.39,8,.03,1.23.18,2.54.62,3.72.03.1.05.2.08.3-1.14-2.21-1.68-4.74-1.76-7.24Zm1.46,4.78c-.06-.4-.1-.79-.13-1.19-.09-1.33.04-2.68.27-3.99.48-2.76,1.48-5.38,2.38-8.01.26-.76.51-1.52.74-2.29,0,0,0-.01,0-.02,0,.94-.03,1.87-.13,2.81-.17,1.6-.47,3.19-.94,4.73-.47,1.54-1.11,3.03-1.58,4.57-.34,1.11-.58,2.24-.62,3.39Zm-.62,9.68c-2.57.08-5.19.29-7.71-.33-.64-.16-1.27-.38-1.88-.65-.29-.13-.58-.28-.86-.44-.02-.01-.05-.03-.07-.04.79.14,1.6.22,2.4.32,1.03.13,2.06.26,3.1.38,2.06.24,4.13.49,6.2.7.13.01.27.03.4.04-.52,0-1.05,0-1.57.01Zm1.68-.39c-1.04-.09-2.07-.19-3.11-.29-2.07-.2-4.13-.44-6.2-.69-1.12-.13-2.24-.31-3.36-.37-.02,0-.03-.02-.05-.03,4.46-.16,8.9.24,13.21,1.42-.17-.01-.33-.03-.5-.04Zm3.16.42s-.04-.01-.05-.02c-.01-.03-.04-.06-.08-.08-.17-.05-.34-.08-.51-.1-.34-.1-.68-.21-1.02-.31-1.11-.31-2.24-.58-3.37-.8-2.26-.44-4.55-.71-6.85-.78,1.16-.06,2.32-.08,3.49-.04,2.35.08,4.7.42,6.92,1.23.58.21,1.15.46,1.7.74.19.1.37.2.56.3.04.06.09.12.13.17-.3-.11-.61-.21-.91-.31Zm6.51,7.18c-.27-.66-.49-1.34-.65-2.03-.32-1.34-.47-2.72-.51-4.1-.08-3.08.46-6.12.89-9.16.13-.89.24-1.79.33-2.68.04-.38.09-.78.12-1.17,0,.02,0,.04.01.06-.04.24-.04.49-.05.73-.02.42-.04.84-.05,1.26-.03.8-.06,1.61-.09,2.41-.06,1.6-.12,3.2-.17,4.8-.09,3.04-.14,6.1.2,9.13.04.35.08.71.12,1.06-.05-.11-.1-.21-.15-.32Zm.14-4.83c-.1-3.13.07-6.27.18-9.4.03-.88.06-1.76.09-2.65,0-.34.02-.67.03-1.01.11.59.2,1.19.27,1.79.17,1.52.22,3.06.19,4.59-.06,3.17-.41,6.33-.47,9.5,0,.37,0,.74,0,1.11-.17-1.3-.25-2.62-.29-3.93Zm-2.9,23.24c-1.7-1.55-3.28-3.16-4.5-5.12-1.2-1.92-2.13-3.99-3.37-5.88-.27-.41-.57-.82-.87-1.21.41.44.83.88,1.23,1.33,1.13,1.25,2.24,2.53,3.31,3.84,2.14,2.62,4.15,5.35,6.01,8.17.28.43.56.87.83,1.31-.85-.84-1.75-1.63-2.63-2.44Zm4.62,4.61c-.08-.1-.17-.21-.25-.31-.16-.25-.32-.5-.48-.75-.45-.73-.91-1.46-1.38-2.19-.92-1.42-1.88-2.81-2.88-4.17-2-2.73-4.13-5.36-6.42-7.85-.65-.71-1.32-1.42-1.99-2.11-.17-.17-.34-.35-.5-.53.35.21.69.43,1.03.66,2.24,1.93,4.33,3.98,6.24,6.26,2.24,2.67,4.17,5.61,5.76,8.71.47.91.88,1.85,1.27,2.79-.13-.17-.25-.34-.38-.51Zm-.37-1.84c-.78-1.56-1.65-3.07-2.6-4.54-1.9-2.94-4.11-5.7-6.61-8.16-.5-.49-1.01-.97-1.53-1.45,1.7,1.3,3.28,2.75,4.7,4.34,2.97,3.33,5.32,7.22,6.84,11.42-.26-.54-.53-1.08-.8-1.62Zm27.85,5.59c-.61-.04-1.2-.18-1.78-.42-.82-.35-1.58-.85-2.33-1.33-1.31-.84-2.66-1.54-4.14-2-.34-.11-.69-.2-1.04-.29,1.64.22,3.26.63,4.81,1.23.89.35,1.77.75,2.61,1.2.88.47,1.68,1.03,2.53,1.56-.22.03-.44.04-.66.05Zm-15.18-4.41c3.79-.6,8-.75,11.57.85,1.47.66,2.8,1.63,3.85,2.85-.51-.39-1.07-.74-1.61-1.07-.75-.45-1.54-.85-2.35-1.19-1.62-.68-3.32-1.17-5.06-1.44-1.98-.31-3.99-.31-5.97-.05-.18.02-.36.04-.54.06.04,0,.07-.01.11-.02Zm-4.57,1.67c1.61-.64,3.3-1.08,5.02-1.31.24-.03.48-.05.72-.07.37-.02.74-.02,1.12,0,1.49.04,2.98.27,4.4.72,1.52.47,2.9,1.19,4.23,2.04.68.44,1.38.87,2.12,1.2-.85-.16-1.68-.4-2.5-.66-1.81-.58-3.61-1.16-5.46-1.59-3.43-.79-7.02-1.03-10.41.09-.23.08-.46.16-.69.25.48-.23.96-.45,1.45-.65Zm21.24-14.92c-1.31.2-2.65.28-3.98.32-2.82.08-5.65-.13-8.42-.63-1.14-.2-2.27-.46-3.4-.76,2.13.13,4.26.17,6.39.27,2.41.11,4.81.27,7.22.43.99.06,1.97.14,2.95.21-.26.07-.52.12-.77.16Zm-13.7-1.85c3.5-.62,7.09-.75,10.62-.35,1.88.21,3.73.58,5.55,1.1,0,0,0,0,0,0,0,0,0,0-.01,0-4.76-.47-9.53-.77-14.32-.66-.97.02-1.95.05-2.92.12.36-.08.72-.15,1.09-.22Zm-2.32.5s.02.02.04.02c2.4-.02,4.79-.15,7.2-.12,2.38.03,4.77.15,7.14.35,1.21.1,2.41.26,3.62.44-.1.07-.2.14-.31.19-4.75-.34-9.51-.59-14.27-.76-1.19-.04-2.37-.09-3.56-.08.05-.01.1-.02.15-.03Zm8.39-11.97c3.1-1.63,6.56-2.38,10.03-2.61.61-.04,1.22-.06,1.84-.07-.64.12-1.29.24-1.93.37-1.72.35-3.43.76-5.12,1.26-3.03.91-5.95,2.16-8.56,3.97-.41.28-.81.58-1.2.89,1.39-1.56,3.08-2.84,4.93-3.81Zm-5.99,5.15c.65-.58,1.32-1.14,2.04-1.65,1.26-.89,2.62-1.63,4.02-2.28,3.03-1.39,6.26-2.24,9.52-2.88.94-.18,1.89-.35,2.84-.51.44-.07.89-.14,1.33-.21-.95.23-1.89.5-2.82.78-1.41.41-2.82.85-4.22,1.32-2.82.94-5.6,2.02-8.28,3.3-1.63.78-3.22,1.65-4.75,2.59.1-.16.21-.31.32-.46Zm18.72-6.61c-.53.28-1.06.55-1.59.83-1.43.76-2.86,1.52-4.3,2.26-2.84,1.45-5.78,2.83-8.85,3.75-.86.26-1.73.48-2.6.66-.55.11-1.1.21-1.65.3,3.82-2.38,7.97-4.21,12.23-5.68,1.56-.54,3.13-1.04,4.72-1.52.68-.2,1.37-.4,2.05-.6Zm-14.17,8.17c-1.64.2-3.24.12-4.87-.08,1.27-.14,2.55-.46,3.77-.8,1.53-.43,3.05-.93,4.53-1.52,3.03-1.21,5.95-2.68,8.86-4.15.89-.45,1.79-.9,2.68-1.36.42-.22.84-.43,1.26-.65-4.78,3.93-9.93,7.8-16.23,8.57Z" style="fill: #d4bd90;"/>
      <path d="m60.76,52.85c-.12-.35-.46-.54-.81-.55-.02,0-.04-.01-.06-.02-.14-.02-.28,0-.41.05-.13.04-.24.13-.34.23-.09.1-.15.22-.19.35-.03.13-.05.27-.02.41.05.26.19.5.42.63.13.07.25.13.4.15.11.02.24.02.35-.01.14-.03.27-.09.38-.18.11-.09.19-.2.25-.33.11-.23.11-.5.03-.74Z" style="fill: #d4bd90;"/>
      <path d="m61.73,51.36c-.01-.08-.04-.15-.09-.21-.03-.03-.06-.05-.08-.08-.07-.05-.14-.08-.22-.09-.06,0-.12,0-.18.02-.06.01-.11.04-.16.08-.05.04-.09.08-.11.13-.03.05-.05.11-.06.17,0,.04,0,.08,0,.12.01.08.04.15.09.21.03.03.06.05.08.08.07.05.14.08.22.09.06,0,.12,0,.18-.02.06-.01.11-.04.16-.08.05-.04.09-.08.11-.13.03-.05.05-.11.06-.17,0-.04,0-.08,0-.12Z" style="fill: #d4bd90;"/>
      <g>
        <path d="m73.59,102.76c-.07-.31-.28-.56-.56-.71-.29-.14-.63-.11-.89.06-.24.15-.41.44-.42.72,0,.16.01.32.09.46.09.16.21.27.37.36.23.13.54.15.79.04.11-.05.21-.13.29-.23.01-.01.03-.02.04-.04,0,0,0,0,0-.01,0,0,0,0,0,0,0,0,0,0,0,0,.07-.1.11-.22.13-.34.11-.05.2-.18.17-.3Z" style="fill: #d4bd90;"/>
        <polygon points="72.64 102.91 72.64 102.91 72.64 102.91 72.63 102.91 72.63 102.91 72.64 102.91" style="fill: #d4bd90;"/>
      </g>
      <path d="m74.05,105.38c-.08-.17-.21-.33-.37-.43-.04-.03-.09-.05-.14-.07-.08-.07-.18-.13-.28-.16-.42-.13-.87.03-1.12.38-.12.16-.2.35-.2.55,0,.24.06.46.19.66.22.34.65.54,1.06.48.39-.05.79-.35.9-.73.07-.22.07-.46-.03-.67Z" style="fill: #d4bd90;"/>
      <path d="m75.28,106.66c-.23,0-.45.12-.48.37-.03.21.14.48.37.48.23,0,.45-.12.48-.37.03-.21-.14-.48-.37-.48Z" style="fill: #d4bd90;"/>
      <path d="m100.4,133.98c-.11-.33-.38-.62-.72-.72-.37-.1-.77-.04-1.07.2-.01.01-.02.03-.04.04-.19.11-.35.28-.45.49-.18.37-.1.81.15,1.13.26.32.64.48,1.04.46.36-.01.72-.21.93-.5.24-.32.27-.72.15-1.1Z" style="fill: #d4bd90;"/>
      <path d="m96.91,133.47c.03-.07.04-.15.03-.23-.01-.08-.04-.14-.09-.21-.03-.05-.08-.08-.13-.11-.05-.03-.1-.05-.16-.06-.08,0-.15,0-.23.03-.14.06-.24.2-.26.35,0,.06,0,.11,0,.17,0,.07.04.13.08.18.02.04.04.08.07.12.05.05.09.1.16.12.06.03.13.03.2.02.04,0,.07-.02.11-.03.02-.01.04-.03.07-.04.03-.02.06-.05.07-.09.02-.02.03-.05.03-.07,0,0,0,0,0,0,0,0,0-.02,0-.04,0,0,0,0,0,0,0,0,0,0,0,0,0,0,0-.01,0-.03,0-.01,0-.02,0-.03,0,0,0,0,0-.01,0,0,0,0,0,.01,0,0,0,0,0,0,.01-.02.03-.03.04-.06Z" style="fill: #d4bd90;"/>
      <path d="m98.98,137.3s-.02-.06-.03-.09c0,0,0,0,0,0,0,0,0,0,0,0,0,0,0,0,0-.01,0,0,0,0,0,0-.01-.04-.03-.08-.05-.12,0-.02-.01-.04-.02-.05-.03-.04-.07-.06-.1-.08,0,0,.01,0,.02,0h0s-.03-.02-.05-.03c-.01,0-.02-.02-.03-.02,0,0-.01,0-.02,0-.04-.02-.08-.03-.12-.03-.06,0-.12,0-.18.02-.06.01-.11.04-.16.08-.06.05-.11.11-.14.18-.01.04-.03.08-.03.13,0,0,0,0,0,.01,0-.01,0,.09,0,.13,0,0,0,0,0,0,0,.02.01.05.02.06,0,0,.01.04.02.06,0,0,0,0,0,0,.02.04.04.07.06.1,0,0,0,0,0,0,.03.03.06.06.09.08,0,0,0,0,0,0,.03.02.07.04.11.06,0,0,0,0,0,0,0,0,0,0,0,0,.04.01.08.02.12.03.04,0,.08,0,.12,0,.08-.01.15-.04.21-.09.06-.05.11-.11.14-.18.03-.08.04-.16.03-.24Z" style="fill: #d4bd90;"/>
      <path d="m101.55,136.28s-.02-.06-.04-.08c-.01-.01-.03-.03-.04-.04-.03-.03-.07-.04-.12-.05,0,0-.02,0-.03,0,0,0,0,0-.01,0,0,0,0,0,0,0-.02,0-.05,0-.07,0-.03,0-.06.02-.09.03-.03.01-.05.04-.07.06-.01.02-.02.04-.03.06-.01.03-.02.07-.02.1,0,.02,0,.04,0,.07,0,.03.02.06.04.09.02.02.03.03.05.05.04.03.08.04.12.05.02,0,.05,0,.07,0,0,0,0,0,0,0h.01s.02,0,.03,0c.03,0,.06-.01.09-.03.03-.01.05-.03.07-.06.01-.02.02-.04.03-.05.01-.03.02-.06.02-.09,0-.02,0-.04,0-.06Z" style="fill: #d4bd90;"/>
    </g>
  </g>
</svg>