<?xml version="1.0" encoding="UTF-8"?>
<svg id="uuid-329d4a98-777e-45e6-a0fe-16371db13d42" data-name="Слой 2" xmlns="http://www.w3.org/2000/svg" viewBox="0 0 63.96 201.14">
  <g id="uuid-56a2f950-5dde-484c-8f9f-2fda4e416459" data-name="OBJECTS">
    <path d="m63.78,90.95c-4.68-1.05-9.6-1.51-14.38-1.01-4.62.48-9.09,1.99-12.84,4.78-3.51,2.61-6.27,6.12-8.46,9.89-2.36,4.06-4.2,8.46-5.6,12.93-1.55,4.92-2.48,10.11-2.03,15.28.06.65.14,1.3.24,1.94,0,.05.03.09.05.13-.45,1.49-.85,2.99-1.15,4.51-.44-2.63-.83-5.26-1.15-7.9-1.01-8.21-1.46-16.47-1.43-24.74.02,0,.03-.01.05-.03,1.69-1.47,3.36-2.96,4.99-4.49.05-.01.1-.03.13-.08.02-.03.03-.05.04-.08,1.01-.96,2.02-1.93,2.99-2.93.11-.12-.09-.31-.2-.2-.88.86-1.78,1.7-2.68,2.54.01-.1.02-.2.04-.3.04-.32.09-.64.14-.96.12-.65.26-1.31.43-1.95.04-.16-.19-.27-.25-.1-.23.63-.44,1.28-.59,1.93-.08.33-.16.65-.22.98-.05.27-.16.63-.11.91-1.54,1.4-3.12,2.77-4.74,4.07.02-3.25.11-6.49.28-9.74,0,0,.01,0,.02,0,1.05-.87,2.04-1.8,3.02-2.76,0,0,0,0,0,0,.04,0,.07,0,.11,0,0,.03-.01.05-.02.08-.03.15.22.22.26.07.02-.06.03-.12.05-.17,3.24-.27,6.44-1.02,9.51-2.09,3-1.05,6.01-2.37,8.63-4.2,1.23-.86,2.37-1.87,3.29-3.06.97-1.27,1.64-2.74,2.12-4.27.5-1.59.83-3.23,1.15-4.86.35-1.77.65-3.55.91-5.33.53-3.65.85-7.33,1.02-11.02.02,0,.04-.02.05-.04.11-.16.15-.32.17-.52.01-.18.01-.36,0-.53,0-.17-.04-.34-.07-.5-.02-.1-.05-.2-.09-.29.08-.27-.14-.59-.45-.43-5.48,2.97-11.04,6.13-15.52,10.52-2.02,1.98-3.82,4.2-5.2,6.67-1.53,2.74-2.34,5.76-3.09,8.78-.85,3.41-1.74,6.82-2.49,10.25-1.12,1.13-2.26,2.24-3.34,3.4.05-.97.11-1.94.17-2.9.66-10.03,1.98-20,3.8-29.89,1.88-2.14,3.74-4.31,5.65-6.43.02-.03.05-.05.07-.08.11.02.23,0,.29-.1,4.18-1.31,8.55-2.87,11.76-5.98,3.34-3.24,4.91-7.75,5.6-12.25.44-2.85.52-5.74.61-8.62,0,0,0,0,0,0-.03,0-.06-.01-.09-.02-.04,0-.08,0-.13-.01-.09,0-.18,0-.28,0-.06,0-.12,0-.19,0,0,0,0,.02,0,.03-.61.7-1.2,1.4-1.85,2.07-.76.78-1.55,1.52-2.36,2.25-1.61,1.45-3.28,2.84-4.88,4.31-.95.88-1.86,1.79-2.71,2.76-.05-.07-.17-.09-.21.02-.03.1-.05.2-.07.3-.47.55-.93,1.11-1.35,1.7-1.28,1.8-2.31,3.79-3.05,5.87-.83,2.34-1.3,4.81-1.37,7.29-1.83,2.03-3.67,4.06-5.34,6.23.61-3.3,1.28-6.59,2-9.87,1.46-6.66,3.15-13.27,5-19.83.03,0,.06-.01.09-.03,2.47-2.31,4.95-4.78,6.26-7.97,1.4-3.37,1.03-7.04.92-10.59-.06-2.06-.02-4.17.58-6.16.01-.04.01-.07.01-.11.07-.05.14-.11.22-.17.33-.23-.06-.73-.38-.49-6.06,4.37-9.59,11.65-9.34,19.11.04,1.11.16,2.22.37,3.31.11.57.24,1.13.39,1.68.1.36.18.74.35,1.07-1.41,4.95-2.73,9.92-3.94,14.92-.54,2.23-1.04,4.48-1.53,6.72-.89-1.06-1.72-2.16-2.52-3.28.28-1.55.35-3.15.35-4.72,0-1.65-.09-3.31-.27-4.95-.35-3.35-1.06-6.66-1.87-9.93-1.63-6.53-3.84-12.92-4.9-19.58-.6-3.75-.82-7.55-.37-11.33.04-.32-.32-.44-.53-.3-.06-.07-.18-.11-.24-.01-1.1,1.68-2.03,3.48-2.89,5.29-.87,1.84-1.66,3.72-2.33,5.64-1.32,3.77-2.2,7.71-2.53,11.69-.64,7.7.85,15.65,4.87,22.3,1.09,1.79,2.37,3.53,4.06,4.79,1.71,1.27,3.86,2,5.99,1.67.06,0,.11-.03.15-.06.9,1.25,1.84,2.46,2.84,3.63-1.31,6.07-2.43,12.18-3.35,18.31-.08-.29-.17-.58-.24-.85-.15-.6-.3-1.19-.46-1.79-.3-1.15-.62-2.29-.92-3.43-.07-.27-.14-.55-.21-.82.05-.04.08-.1.09-.18.02-1.43.16-2.86.43-4.26.03-.14-.21-.21-.25-.07-.3,1.02-.52,2.06-.62,3.12-.41-1.57-.81-3.14-1.29-4.69-.03-.1-.19-.05-.17.05.45,2.37,1.06,4.69,1.6,7.04.26,1.15.52,2.3.79,3.45.14.58.28,1.15.42,1.72.14.58.22,1.25.48,1.79.04.09.11.13.18.15-.66,4.56-1.2,9.13-1.61,13.72-.63,7.17-.94,14.36-.87,21.55-.14-.24-.27-.48-.4-.71.01-.03.02-.06.02-.1.05-6.98-.35-13.93-1.35-20.84-.89-6.2-2.18-12.6-5.7-17.9-1.6-2.42-3.65-4.57-6.12-6.1,0,0,0,0-.01,0-.01-.01-.02-.02-.03-.03-.04-.03-.08-.05-.12-.06-.03,0-.06-.02-.1-.02-.03,0-.07,0-.1,0-.01,0-.02,0-.04,0-.03,0-.06.02-.09.03-.06.03-.11.07-.15.12-.07.09-.09.2-.08.31,0,.03.02.07.03.1,0,.03.02.06.04.09.02.03.04.05.07.07.02.01.03.02.05.03-.26,3.34-.3,6.7-.41,10.05-.12,3.54-.26,7.08-.36,10.62-.09,3.24-.08,6.54.79,9.68.83,2.97,2.48,5.58,4.6,7.8,1.23,1.29,2.58,2.46,4,3.53,1.37,1.03,2.78,2.03,4.24,2.93.31.53.63,1.04.97,1.55.07.1.16.14.27.15.08,5.4.38,10.8.91,16.19.02.18.04.36.06.54-.05-.08-.11-.16-.17-.23-.35-.51-.69-1.01-1.04-1.52-.73-1.06-1.44-2.14-2.16-3.21-.08-.11-.15-.23-.23-.35.04-.05.07-.12.05-.2-.24-1.83-.44-3.66-.76-5.48-.03-.17-.26-.13-.25.04.08,1.6.25,3.19.41,4.79-1.14-1.74-2.25-3.5-3.38-5.25-.05-.08-.19,0-.14.08,1.2,2.23,2.51,4.4,3.84,6.55.67,1.08,1.37,2.14,2.06,3.2.35.53.71,1.06,1.07,1.58.27.39.53.79.81,1.17,1.08,9.98,2.95,19.88,5.7,29.54-.41-.93-.82-1.85-1.25-2.77-1.36-2.92-2.84-5.78-4.37-8.61-2.19-4.01-4.55-7.93-7.1-11.72-.01-.03-.03-.06-.05-.08-1.01-1.51-2.05-3-3.12-4.47-1.06-1.47-2.16-2.91-3.28-4.33-1.12-1.42-2.23-2.86-3.47-4.18-.07-.07-.16-.08-.23-.04-.04-.09-.18-.05-.17.05.11,1.06.39,2.1.63,3.14.24,1.02.48,2.04.72,3.06.49,2.06.98,4.12,1.49,6.17.9,3.69,1.7,7.42,2.82,11.05,1.03,3.33,2.42,6.6,4.65,9.31,2.07,2.52,4.75,4.43,7.44,6.24,1.54,1.04,3.1,2.05,4.6,3.15,1.23.91,2.37,1.9,3.5,2.91.82,2.37,1.71,4.72,2.64,7.05,0,.02,0,.04,0,.06.02.06.04.11.06.17,0,.04.02.09.03.14.04.33.11.65.29.88.02.02.04.04.06.06.22.61.45,1.21.7,1.81.36.9.71,1.82,1.18,2.67-2.26-1.49-4.45-3.07-6.6-4.71-.11-.08-.23.08-.13.17,2.35,2.15,4.89,4.09,7.51,5.89,2.52,5.39,5.37,10.63,8.63,15.58.84,1.28,1.72,2.54,2.62,3.78.23.32.68-.05.48-.37-2.13-3.31-4.15-6.68-6.05-10.11.07-.42.02-.85,0-1.27-.02-.5-.04-1-.06-1.5-.03-.84-.05-1.67-.07-2.51.08-.09.15-.19.23-.27.1-.11.2-.22.31-.33l.65-.7c.43-.46.84-.93,1.26-1.4.11-.13-.09-.33-.21-.21-.45.44-.9.87-1.35,1.31-.22.22-.44.44-.66.66-.08.08-.16.16-.24.25-.04-2.14,0-4.27.03-6.41,0-.13-.2-.17-.21-.03-.21,2.12-.3,4.25-.34,6.39-.02,1.03-.02,2.05,0,3.08,0,.55.02,1.09.04,1.64,0,.05,0,.1,0,.15-2.64-4.86-5.04-9.84-7.16-14.96-.02-.18-.04-.35-.05-.5-.04-.6-.06-1.2-.06-1.8,0-.6,0-1.21.02-1.81.02-.46.14-1.05-.02-1.51.58-.66,1.14-1.33,1.74-1.98.75-.81,1.53-1.61,2.34-2.37,1.56-1.48,3.2-2.87,4.86-4.24,3.23-2.66,6.54-5.26,9.45-8.28.87-.9,1.7-1.85,2.47-2.83.01,0,.03-.02.04-.02.07-.04.09-.1.1-.16,1.7-2.19,3.1-4.59,4-7.25.45-1.32.76-2.67.99-4.04.17-.06.16-.24.06-.35.45-2.81.52-5.69.5-8.54-.04-4.44-.32-8.9.18-13.33.02-.2.05-.4.07-.6.16-.36.39-.79.27-1.18-.04-.12-.21-.19-.32-.14-.15-.06-.34,0-.39.21-.04.18-.07.36-.11.54-.04.12-.08.23-.12.34-.14.38-.28.76-.42,1.15-1.42,1.26-2.87,2.5-4.37,3.66-1.68,1.3-3.41,2.55-5.13,3.8-3.26,2.37-6.49,4.8-9.28,7.73-2.73,2.87-4.97,6.21-6.11,10.02-.63,2.09-.98,4.25-1.22,6.41-.26,2.26-.44,4.54-.61,6.81-.34,4.6-.54,9.25.05,13.84.04.34.1.67.15,1-.09.31-.15.63-.2.94-.07.43-.12.86-.14,1.3-.43-1.13-.86-2.25-1.27-3.39,0-.02-.01-.04-.02-.06-.02-.07-.05-.14-.08-.21-3.14-8.86-5.47-18-7.07-27.27.4-1.79.86-3.57,1.4-5.32,0,0,.01,0,.02,0,1.81-.53,3.48-1.34,5.04-2.4,1.56-1.06,2.98-2.32,4.27-3.7,2.2-2.34,3.99-5,5.6-7.77.01-.01.03-.02.04-.04.05-.04.06-.09.06-.14.44-.76.87-1.53,1.29-2.3,2.03-3.73,3.89-7.57,6.22-11.13,2.23-3.41,4.89-6.49,8.26-8.83,3.37-2.34,7.13-4.02,10.58-6.23.43-.28.86-.56,1.27-.85.14-.1.15-.24.1-.36.07-.12.03-.31-.15-.35Zm-19.66-12.68c-.39,1.56-.9,3.13-1.74,4.52-.11.18-.23.35-.35.52-4.09,2.19-8.51,3.7-13.08,4.52-1.21.22-2.43.35-3.64.54,1.83-1.99,3.63-4,5.36-6.08,1.19-1.42,2.35-2.87,3.47-4.35.4-.01.81-.12,1.19-.2.5-.1,1.01-.21,1.51-.33.98-.23,1.95-.5,2.92-.8.99-.3,1.96-.62,2.93-.98.46-.17.92-.35,1.38-.53.24-.1.54-.19.81-.31-.23,1.16-.47,2.31-.76,3.46Zm1.85-10.2c-.27,2.05-.59,4.11-.97,6.15-.36.08-.73.29-1.06.42-.46.18-.92.36-1.38.53-.95.35-1.9.67-2.86.97-.96.3-1.94.56-2.92.81-.5.13-1,.25-1.5.36-.25.06-.51.1-.76.16,2.68-3.53,5.19-7.19,7.54-10.94.95-1.52,1.88-3.06,2.78-4.62.67-1.16,1.34-2.32,1.93-3.52-.11,3.24-.37,6.47-.78,9.69Zm-9.36-4.57c.49-.35.98-.7,1.48-1.03,2.81-1.89,5.77-3.51,8.72-5.17-.01.03-.02.07-.02.11,0,.05,0,.11,0,.16-.74,1.18-1.43,2.4-2.13,3.6-.8,1.38-1.62,2.75-2.47,4.1-1.6,2.56-3.28,5.08-5.02,7.54-.12-.68-.26-1.36-.35-2.05-.11-.85-.19-1.7-.23-2.55-.09-1.58-.01-3.15.03-4.73Zm-8.77,11.42c.02-.53.05-1.06.09-1.59.04-.51.04-1.09.16-1.6,2.19-3.08,5.02-5.67,8.08-7.92-.19,1.44-.17,2.91-.11,4.36.04.87.12,1.75.23,2.61.11.87.22,1.78.45,2.63-2.6,3.66-5.37,7.22-8.27,10.65-.09-.89-.28-1.78-.39-2.66-.13-1.07-.21-2.15-.25-3.23-.04-1.08-.04-2.17,0-3.25Zm-4.64,9.05c.77-3.09,1.52-6.22,2.97-9.07.42-.83.89-1.63,1.4-2.4-.03.29-.07.57-.09.86-.04.53-.06,1.06-.08,1.59-.04,1.08-.03,2.16.02,3.23.05,1.1.14,2.2.26,3.3.11.98.2,2.02.49,2.97-1.13,1.33-2.28,2.64-3.45,3.92-1.17,1.28-2.37,2.55-3.59,3.79.74-2.71,1.39-5.45,2.07-8.18Zm-2.31,9.06c1.12-1.13,2.22-2.28,3.3-3.43.28-.3.54-.6.82-.9.02,0,.02.02.04.02,2.32,0,4.69-.48,6.93-1.03,2.28-.56,4.51-1.3,6.67-2.22.92-.39,1.82-.82,2.71-1.28-.59.7-1.24,1.34-1.96,1.91-2.44,1.94-5.37,3.29-8.26,4.41-3.33,1.29-6.79,2.12-10.3,2.7.02-.06.03-.12.05-.18Zm18.31-43.35c-1.48,1.6-3.32,2.83-5.25,3.81-2.07,1.05-4.26,1.85-6.43,2.67,1.74-1.92,3.48-3.84,5.2-5.78.7-.8,1.39-1.61,2.07-2.43,2.52-.37,4.96-1.22,7.19-2.44-.72,1.51-1.64,2.93-2.79,4.16Zm3.43-5.66c-.11.29-.23.58-.35.86-2.22,1.29-4.62,2.16-7.14,2.65,1.11-1.36,2.2-2.74,3.22-4.17.04-.02.06-.06.07-.1.53-.74,1.03-1.49,1.53-2.24.85-.46,1.61-1.04,2.36-1.65.63-.51,1.23-1.05,1.82-1.6-.28,2.13-.73,4.23-1.51,6.26Zm1.6-6.99c-.7.66-1.43,1.31-2.17,1.93-.53.44-1.08.87-1.61,1.3.6-.95,1.17-1.91,1.71-2.9.69-1.28,1.33-2.59,1.88-3.93.18-.44.35-.89.52-1.34-.05,1.65-.14,3.3-.32,4.94Zm-3.89-2.17c.89-.79,1.76-1.6,2.59-2.45.49-.5.97-1.01,1.42-1.54-.02.04-.03.09-.05.13-.22.59-.43,1.18-.67,1.76-.48,1.2-1.03,2.38-1.62,3.53-1.07,2.09-2.31,4.09-3.64,6.02-.03-.24-.05-.48-.07-.72-.05-.55-.08-1.09-.11-1.64-.04-1.06-.03-2.12-.03-3.18.73-.63,1.46-1.27,2.17-1.91Zm-7.93,10.86c.05-1.23.21-2.44.33-3.66,1.52-1.81,3.27-3.4,5.05-4.97-.08.93-.09,1.86-.06,2.79.02.57.05,1.14.09,1.71.03.42.03.91.12,1.35,0,.01-.02.03-.03.04-1.67,2.35-3.48,4.6-5.35,6.79-.03-.57-.12-1.15-.15-1.72-.03-.78-.04-1.55,0-2.33Zm-1.13-1.73c.31-.46.64-.9.99-1.34-.16,1-.23,2.02-.25,3.02-.02.72-.01,1.45.02,2.17.02.4.04.79.08,1.19.03.37.04.76.13,1.12-1.59,1.85-3.21,3.66-4.84,5.46.24-4.14,1.56-8.19,3.88-11.63Zm3.2-20.09c-.55,1.62-1.44,3.07-2.47,4.42-1.06,1.38-2.24,2.67-3.43,3.94.74-2.61,1.51-5.21,2.29-7.81.37-.06.76-.26,1.09-.41.42-.18.82-.4,1.21-.63.6-.35,1.19-.75,1.73-1.19-.1.56-.24,1.12-.42,1.66Zm.53-2.35c-.66.55-1.34,1.06-2.09,1.49-.37.21-.75.41-1.14.59-.24.11-.51.21-.76.32,1.12-3.69,2.27-7.37,3.45-11.04.21-.65.42-1.29.64-1.94-.21,2.52.07,5.09.08,7.62,0,.98-.04,1.97-.17,2.95Zm-2.76-9.75c.96-1.17,2.04-2.24,3.22-3.19-.03.15-.07.29-.1.44-1.17,3.33-2.3,6.67-3.39,10.03,0-.02-.01-.03-.02-.05-.09-.23-.18-.46-.27-.7-.18-.5-.35-1.01-.49-1.53-.24-.89-.42-1.81-.6-2.72.5-.8,1.04-1.56,1.64-2.29Zm-4.53,9.49c.48-2.41,1.39-4.7,2.65-6.8.07.84.22,1.66.44,2.48.13.48.27.96.43,1.44.08.24.17.47.25.71.08.21.14.42.28.59-.82,2.53-1.6,5.07-2.37,7.61-.07-.12-.15-.24-.22-.36-.11-.19-.21-.39-.32-.59-.22-.42-.42-.86-.6-1.3-.31-.76-.57-1.55-.8-2.34.06-.48.14-.96.24-1.44Zm0,8.76c-.19-.95-.31-1.91-.38-2.87-.08-1.18-.06-2.37.05-3.56.14.53.31,1.05.51,1.56.18.46.38.91.6,1.35.11.23.23.45.36.67.11.2.22.44.38.61,0,0,.01,0,.02,0-.39,1.29-.78,2.58-1.15,3.87-.02-.07-.04-.14-.06-.21-.13-.48-.24-.96-.33-1.44Zm-13.33-9.82c.3,1.15.62,2.29.94,3.43,0,.01-.02.02-.02.03-.07.34-.06.71-.08,1.06-.02.31-.05.62-.08.92-.06.62-.13,1.23-.2,1.84-.15,1.27-.34,2.54-.55,3.81-.38,2.28-.82,4.56-1.38,6.8-.28-.72-.54-1.45-.78-2.18-1.47-4.42-2.37-9.02-2.69-13.66,0,0,.01,0,.02-.01.25-.31.41-.68.58-1.03.19-.38.37-.77.55-1.16.37-.79.71-1.6,1.03-2.41.31-.79.61-1.59.88-2.4.13-.38.25-.76.37-1.14.4,2.05.89,4.08,1.42,6.1ZM12.09,1.07c-.39,4.1-.02,8.2.73,12.24-.06.23-.12.45-.19.67-.12.41-.25.81-.39,1.22-.26.79-.55,1.57-.85,2.35-.3.77-.62,1.54-.96,2.3-.17.39-.35.78-.54,1.16-.12.26-.27.52-.38.78-.17-2.81-.13-5.63.12-8.44.37-4.18,1.23-8.28,2.45-12.28Zm-5.09,11.17c.67-2.09,1.45-4.15,2.35-6.15.67-1.48,1.42-2.92,2.18-4.36-2.36,7.02-3.12,14.62-2.46,21.98.11,1.18.25,2.35.43,3.52-.27-.5-.56-.99-.82-1.49-.44-.88-.85-1.77-1.25-2.66-.39-.88-.74-1.77-1.08-2.67-.17-.45-.33-.9-.49-1.35-.11-.32-.21-.66-.33-.98.36-1.97.85-3.92,1.46-5.84Zm-1.19,22.62c-1.24-5.28-1.29-10.73-.4-16.04.03.09.06.18.09.27.15.48.31.95.47,1.43.32.93.68,1.84,1.07,2.74.38.9.8,1.79,1.24,2.66.43.86.85,1.79,1.42,2.56,0,0,0,0,0,0,.83,4.63,2.25,9.14,4.2,13.42-.08-.03-.15-.07-.23-.1-.41-.19-.82-.4-1.21-.61-.83-.45-1.63-.95-2.4-1.5-1.39-.99-2.68-2.14-3.87-3.37-.14-.48-.26-.97-.38-1.46Zm4.35,10.4c-1.65-2.55-2.9-5.35-3.77-8.25,1.02,1.13,2.15,2.14,3.4,3.04.75.54,1.54,1.03,2.35,1.48.43.24.87.46,1.31.68.22.11.5.28.77.39.37.79.76,1.57,1.17,2.34,1.07,2.02,2.27,3.97,3.58,5.84-3.84.46-6.87-2.54-8.8-5.52Zm9.45,5.26c-2.61-3.71-4.77-7.73-6.42-11.95.61-2.37,1.17-4.76,1.58-7.18.21-1.26.4-2.53.55-3.8.08-.66.15-1.32.22-1.98.03-.27.07-.55.11-.83,1.41,4.96,2.88,9.91,3.66,15.02.28,1.86.49,3.73.53,5.6.04,1.72-.08,3.41-.23,5.12Zm-7.82,27.24c1,3.1,1.6,6.31,2.07,9.52.04.29.08.58.12.87-.02,0-.03,0-.05.02-.32.22-.44.79-.6,1.13-.2.44-.4.88-.59,1.33-.37.87-.7,1.76-1,2.65-.47,1.39-.86,2.81-1.16,4.25-.44-1.29-.86-2.58-1.24-3.88-1.5-5.05-2.65-10.19-3.77-15.34.32-1.37.63-2.73,1.08-4.06.45-1.32,1-2.61,1.63-3.86,1.51,2.26,2.66,4.78,3.5,7.38Zm-9.2-13.06s.07-.02.1-.04c.01-.01.02-.03.03-.04,2.13,1.48,3.89,3.34,5.34,5.44,0,0-.01.01-.02.02-.7,1.33-1.29,2.71-1.77,4.13-.36,1.06-.68,2.14-.89,3.25-.16-.73-.32-1.45-.48-2.18-.42-1.92-.85-3.83-1.28-5.75-.36-1.61-.7-3.24-1.11-4.84.02,0,.05,0,.07,0Zm-.42,11.21c.09-3.22.26-6.45.26-9.67.19.97.39,1.94.58,2.9.34,1.72.68,3.44,1.04,5.16.65,3.19,1.3,6.38,1.99,9.56.36,1.63.73,3.26,1.13,4.88-.02-.02-.05-.05-.07-.07-.22-.25-.45-.49-.68-.72-.46-.47-.95-.93-1.45-1.36-.5-.43-1.02-.84-1.56-1.22-.27-.19-.55-.37-.83-.55-.2-.12-.42-.29-.66-.35.06-2.85.15-5.7.24-8.55Zm.54,18.99c-.77-2.8-.86-5.75-.82-8.64,0-.48.02-.95.03-1.43.12.1.26.18.38.26.27.19.54.38.81.58.52.38,1.03.78,1.51,1.2.5.43.98.88,1.44,1.35.23.24.46.48.68.72.2.22.39.54.65.69,0,0,0,0,.01,0,1.02,4,2.21,7.95,3.74,11.79-.01-.01-.03-.02-.04-.04-.37-.34-.75-.67-1.13-1-.76-.66-1.54-1.31-2.33-1.94-1.57-1.25-3.18-2.52-4.91-3.55,0,0-.01,0-.02,0Zm9.06,11.54c-1.3-.96-2.57-1.97-3.74-3.09-2.2-2.1-4.05-4.61-5.04-7.5-.06-.19-.11-.38-.17-.57,1.52,1.17,3.09,2.27,4.58,3.48.78.64,1.55,1.29,2.31,1.96.36.32.72.64,1.08.97.24.22.48.48.74.7.82,1.97,1.71,3.93,2.74,5.81-.84-.58-1.68-1.15-2.5-1.76Zm3.49,1.73c-1.04-1.88-2-3.8-2.84-5.79-.61-1.44-1.16-2.9-1.68-4.37.36-1.6.8-3.18,1.34-4.73.31-.87.64-1.73,1.01-2.58.18-.42.37-.85.57-1.26.1-.22.27-.45.39-.69.39,2.87.69,5.75.89,8.64.25,3.59.37,7.19.32,10.79Zm32.96,42.42c-2.76,3.14-6.03,5.79-9.25,8.44-3.28,2.7-6.58,5.43-9.27,8.74-.21.26-.41.53-.6.8.51-3.09,1.37-6.1,2.48-9.03.61-.27,1.18-.63,1.76-.95.61-.34,1.23-.69,1.84-1.03,1.21-.68,2.41-1.36,3.62-2.04,2.43-1.37,4.87-2.74,7.3-4.1.89-.5,1.79-1,2.68-1.5-.19.23-.37.45-.57.68Zm6.01-10.65c-.9,3.4-2.62,6.44-4.78,9.17-4.68,2.64-9.37,5.28-14.05,7.92-.67.38-1.34.76-2.02,1.14-.54.31-1.1.59-1.63.93.78-2.01,1.67-3.99,2.65-5.92.08-.01.15-.06.15-.17,0-.04,0-.07,0-.11.53-1.04,1.09-2.07,1.66-3.08.86-1.51,1.75-3,2.67-4.47.44-.21.85-.48,1.27-.74.53-.33,1.05-.65,1.59-.96,1.05-.61,2.11-1.19,3.19-1.74,2.14-1.1,4.34-2.08,6.59-2.93,1.05-.4,2.11-.76,3.17-1.1-.13.69-.27,1.39-.45,2.07Zm1.07-22.98s0,.02,0,.03c-.08,1.1-.12,2.21-.13,3.31-.03,2.21.04,4.41.09,6.62.07,3.47.08,7-.49,10.44-4.47,1.42-8.79,3.31-12.84,5.66-.57.33-1.13.67-1.69,1.01-.31.19-.62.38-.92.59,1.87-2.97,3.82-5.89,5.74-8.84.02-.02.04-.03.05-.06,0-.01,0-.03.01-.04,1.28-1.98,2.55-3.96,3.76-5.98,1.12-1.87,2.2-3.77,3.18-5.72.85-1.68,1.66-3.4,2.31-5.17.07,0,.13-.04.17-.13.28-.56.52-1.14.76-1.71Zm-9.03,6.38c2.93-2.13,5.9-4.25,8.5-6.77,0,0,0,0,0,0-.14.39-.28.78-.41,1.18-.8,1.8-1.57,3.61-2.46,5.37-.9,1.8-1.87,3.57-2.89,5.31-1.19,2.03-2.45,4.02-3.73,6,0-.05,0-.11.01-.16.05-.52.09-1.04.13-1.56.08-1.04.15-2.08.24-3.12.09-1.04.18-2.08.28-3.11.1-1.03.25-2.07.31-3.11,0,0,0-.01,0-.02Zm-10.42,8.88c2.64-2.99,5.79-5.47,8.99-7.83.31-.23.63-.46.94-.69-.09.91-.13,1.82-.2,2.73-.09,1.04-.18,2.08-.27,3.11-.09,1.04-.21,2.07-.31,3.11-.05.5-.1.99-.14,1.49-.03.36-.11.76-.11,1.14-.7,1.07-1.4,2.14-2.1,3.21-2.86,4.36-5.72,8.75-8.13,13.38-.05-2.34-.21-4.67-.54-7-.19-1.35-.43-2.69-.71-4.03-.14-.67-.3-1.33-.46-1.99-.13-.54-.26-1.11-.46-1.63.95-1.78,2.13-3.45,3.49-4.99Zm-7.01,23.7c.15-2.28.34-4.56.53-6.83.19-2.17.43-4.34.92-6.47.4-1.73,1.02-3.36,1.81-4.91.1.44.24.88.34,1.32.16.64.3,1.28.44,1.93.27,1.29.49,2.59.68,3.9.36,2.57.56,5.17.57,7.77-1.07,2.11-2.05,4.28-2.9,6.5-1.02,2.7-1.81,5.48-2.29,8.32-.43-3.82-.35-7.69-.1-11.53Zm-18.73-16.12c.02-.7.05-1.39.08-2.09.02-.44.07-.89.1-1.33.38.58.77,1.16,1.14,1.74,2.89,4.49,5.56,9.13,7.93,13.92-.13,1.91-.21,3.88,0,5.79-1.86-2.48-3.64-5.03-5.31-7.64-1.39-2.16-2.71-4.35-3.97-6.58,0-1.27,0-2.55.04-3.82Zm-7.02-13.36c.99,1.27,1.96,2.55,2.92,3.85,1.33,1.8,2.62,3.64,3.88,5.5-.07.62-.06,1.26-.08,1.89-.03.72-.05,1.44-.06,2.16-.02,1.08,0,2.17.02,3.25-1.86-3.32-3.58-6.71-5.15-10.19-1.37-3.06-2.64-6.16-3.81-9.3.76.96,1.54,1.89,2.29,2.85Zm4.05,21.95c-.22-.55-.43-1.1-.62-1.67-1.2-3.53-1.98-7.2-2.87-10.81-.55-2.26-1.1-4.51-1.67-6.76-.29-1.15-.58-2.3-.87-3.44-.11-.43-.21-.86-.32-1.29,1.93,5.73,4.33,11.28,7.12,16.65,2.48,4.76,5.26,9.36,8.32,13.77-.1-.06-.2-.12-.3-.18-.43-.27-.86-.54-1.28-.81-.87-.56-1.73-1.14-2.57-1.74-1.67-1.18-3.24-2.5-4.9-3.7,0,0-.02,0-.03-.01Zm16.19,16.08c-1.31-1-2.68-1.9-4.05-2.81-2.69-1.78-5.44-3.57-7.67-5.93-1.85-1.96-3.2-4.28-4.24-6.74,1.38,1.28,2.94,2.4,4.47,3.49.83.59,1.66,1.15,2.52,1.7.43.28.85.55,1.28.81.38.23.76.49,1.16.69.5.7,1,1.4,1.52,2.1,1.1,1.49,2.24,2.96,3.4,4.4.57.7,1.15,1.4,1.74,2.1.25.29.5.59.75.89-.29-.24-.59-.47-.89-.69Zm1.25-.72c.1.32.21.64.32.96-.22-.25-.44-.5-.65-.75-.54-.63-1.07-1.27-1.59-1.91-1-1.22-1.98-2.47-2.93-3.72-.03-1.04-.1-2.08-.11-3.13,0-.83.03-1.66.08-2.49.37.76.73,1.52,1.08,2.28.75,1.63,1.5,3.25,2.21,4.9.54,1.26,1.04,2.54,1.58,3.8,0,.02.01.04.02.06Zm28.74-73.45c2.9.01,5.8.32,8.65.78.07.01.15.02.22.04-1.98.27-3.93.66-5.88,1.09-2.25.51-4.49,1.11-6.65,1.92-.2.07-.39.16-.58.23.19-.26.37-.52.57-.77.36-.45.74-.88,1.15-1.28.39-.39.81-.76,1.24-1.1.22-.17.44-.34.66-.49.2-.14.42-.27.62-.42Zm-5.53.39c1.56-.24,3.13-.35,4.7-.38-.24.18-.47.37-.68.54-.45.36-.89.74-1.3,1.15-.41.4-.79.82-1.15,1.27-.33.41-.71.85-.91,1.35-3.74,1.56-7.1,3.8-9.98,6.68-2,1.99-3.74,4.19-5.3,6.53.14-.42.28-.84.43-1.26.38-1.06.77-2.12,1.17-3.17.82-2.12,1.72-4.21,2.65-6.28.49-1.09.99-2.18,1.46-3.27,2.73-1.6,5.74-2.65,8.91-3.15Zm-20.08,15.68c2.03-3.8,4.58-7.41,7.88-10.22.91-.78,1.87-1.47,2.88-2.08-.99,1.82-1.85,3.71-2.65,5.61-.88,2.09-1.72,4.21-2.49,6.35-.22.61-.44,1.22-.66,1.83-.1.29-.2.57-.3.86-.07.21-.15.4-.18.61-.59.95-1.15,1.92-1.69,2.9-2.36,4.31-4.34,8.82-6.27,13.33-.29.67-.57,1.35-.85,2.03.14-4.18.35-8.35.51-12.52,1.06-2.99,2.34-5.91,3.82-8.7Zm-6.58,27.24c-.55-4.75.09-9.56,1.36-14.16.33-1.2.7-2.39,1.11-3.58-.22,4.12-.41,8.25-.66,12.37,0,.09.04.15.1.19-.69,1.71-1.33,3.43-1.91,5.18Zm10.07-6.43c-2.44,2.93-5.39,5.35-8.87,6.94-.34.16-.69.31-1.04.44.03-.11.07-.22.1-.33.37-1.12.76-2.23,1.18-3.34.39-.2.75-.47,1.11-.7.45-.29.91-.59,1.36-.89.94-.62,1.86-1.26,2.78-1.9,1.8-1.27,3.58-2.57,5.31-3.93.51-.4,1.03-.8,1.54-1.2-1.05,1.71-2.18,3.36-3.47,4.9Zm6.76-10.76c-.89,1.69-1.81,3.37-2.78,5.02-.61.49-1.22.99-1.84,1.46-.88.67-1.75,1.33-2.64,1.99-1.77,1.31-3.57,2.58-5.4,3.81-.5.34-1,.68-1.51,1.01-.33.22-.69.43-1.02.66.38-.98.77-1.95,1.17-2.91,1.07-2.55,2.19-5.1,3.36-7.61.91-.51,1.77-1.13,2.65-1.71.97-.64,1.94-1.28,2.91-1.93,1.94-1.29,3.88-2.57,5.82-3.85.76-.5,1.52-1.01,2.28-1.51-1.03,1.84-2.01,3.71-2.99,5.57Zm14.92-19.09c-1.72,1.09-3.35,2.31-4.8,3.73-1.42,1.39-2.69,2.92-3.84,4.54-.99,1.39-1.9,2.85-2.75,4.32-3.76,2.51-7.52,5.02-11.28,7.53-.86.57-1.75,1.12-2.59,1.73.78-1.66,1.59-3.32,2.44-4.94,2.11-4.03,4.59-7.91,7.68-11.27,1.92-2.09,4.09-3.92,6.47-5.43.73-.11,1.46-.32,2.19-.44.88-.15,1.76-.26,2.65-.33,1.56-.12,3.12-.1,4.68.05-.28.17-.56.34-.84.51Zm1.57-.95s-.01,0-.02,0c-1.79-.21-3.6-.23-5.39-.09-.89.07-1.77.19-2.64.35-.33.06-.68.13-1.02.2.96-.55,1.96-1.04,2.98-1.48,2.1-.9,4.29-1.58,6.51-2.13,2.23-.56,4.49-.94,6.73-1.42.4-.09.79-.18,1.19-.27-2.67,1.79-5.56,3.22-8.33,4.84Z" style="fill: #d4bd90;"/>
  </g>
</svg>