<?xml version="1.0" encoding="UTF-8"?>
<svg id="uuid-615cc0c6-4e34-42c8-b11f-6641e8395730" data-name="Слой 2" xmlns="http://www.w3.org/2000/svg" viewBox="0 0 87.04 122.79">
  <g id="uuid-46ba3fec-0d8b-4ed4-81a9-a8e9986b5ee0" data-name="OBJECTS">
    <path d="m87.04,25.39c.01-.16-.1-.34-.27-.35-4.39-.17-8.76-.05-13.13.56-4.34.61-8.62,1.64-12.76,3.08-1.87.65-3.7,1.39-5.49,2.23,3.99-4.01,8.16-7.85,12.5-11.49.78-.65,1.56-1.31,2.32-1.98.16-.14.17-.33.09-.48,2.88-3.22,3.84-7.88,4.21-12.07.13-1.52.2-3.05.27-4.57.01-.26-.32-.44-.5-.2-1.75,2.36-3.53,4.69-5.02,7.22-1.44,2.46-2.63,5.07-3.28,7.85-.36,1.53-.67,3.22-.49,4.79,0,.08.05.14.1.18-1.8,1.56-3.56,3.17-5.3,4.79-2.03,1.89-4.02,3.83-5.97,5.81-.18-.75-.35-1.51-.49-2.27.01-.01.03-.02.04-.04,3.55-5.3,4.94-11.97,3.79-18.25-.14-.77-.32-1.53-.53-2.28-.16-.58-.35-1.33-.95-1.6-.59-.27-1.15.1-1.47.6-.42.65-.57,1.48-.77,2.22-.93,3.51-1.39,7.11-1.4,10.74,0,2.74.26,5.47.8,8.15,0,0,0,.01-.01.02-.09.14-.07.28,0,.39,0,1.04.08,2.06.25,3.09-.7.72-1.4,1.44-2.09,2.16-2.99,3.16-5.86,6.44-8.62,9.8-.08,0-.16.03-.23.11-.19.22-.38.46-.56.68.09-1.83.12-3.66.13-5.49.08-.03.14-.1.11-.2-.03-.13-.07-.26-.11-.39,0-2.04-.05-4.09-.12-6.13-.16-4.39-.48-8.77-.98-13.14-.12-1.08-.26-2.17-.4-3.25-.07-.54-.15-1.08-.22-1.62-.05-.37-.11-.75-.26-1.1-.26-.65-.89-1.15-1.61-.88-.71.26-1.07,1.06-1.28,1.73-1.25,3.89-1.31,8.09-.59,12.09.73,4.02,2.22,7.89,4.02,11.54.23.46.46.91.69,1.37.06.12.17.18.28.19.02,1.89.02,3.79.02,5.68-.68.84-1.33,1.71-1.98,2.57-.12.09-.25.18-.37.27-.1.07-.08.18-.02.25-.17.22-.33.44-.5.66-.76,1.01-1.51,2.03-2.25,3.05-.31.42-.62.83-.93,1.25-1.23,1.69-2.43,3.4-3.61,5.14-.41-2.11-.9-4.2-1.31-6.31-.26-1.37-.5-2.75-.7-4.13.04-.03.08-.06.11-.11,1.76-3.35,2.96-6.99,3.56-10.72.3-1.88.45-3.78.43-5.68-.01-1.6.12-3.71-1.18-4.88-.23-.21-.62-.49-.95-.5-.29-.01-.64.47-.81.67-.52.58-.93,1.26-1.25,1.97-.67,1.47-.96,3.1-1.1,4.7-.36,3.98-.13,8.04.35,12,.04.3.08.6.12.9-.12-.23-.25-.45-.41-.66-.08-.11-.18-.21-.27-.31-.4-.95-.82-1.88-1.24-2.81-.97-2.11-2.04-4.18-3.17-6.21-1.13-2.03-2.34-4.03-3.62-5.98-1.21-1.84-2.46-3.68-3.88-5.36-1.5-1.78-3.26-3.38-5.4-4.35-.23-.1-.46.15-.37.37,1.48,3.52,3.25,6.93,5.27,10.18,2.04,3.27,4.34,6.38,6.88,9.28,1.13,1.29,2.32,2.53,3.53,3.73.18.25.37.5.61.7.04.03.08.03.11.02.07.07.14.14.21.21.05.05.11.07.16.07.07.07.15.14.22.21.13.13.25.28.37.43.46,1.05.9,2.11,1.39,3.15.18,1.11.38,2.21.59,3.31.42,2.19.87,4.39,1.47,6.54-3.37,4.99-6.51,10.13-9.42,15.4-.23.42-.46.85-.69,1.28.05-1.04.05-2.09.05-3.13,0-1.46-.04-2.93-.11-4.39,0-.09,0-.18-.01-.28.04,0,.09-.04.11-.09,2.09-4.16,3.42-8.69,4.02-13.3.17-1.33.29-2.67.33-4.01,0-.24-.25-.42-.46-.26-1.67,1.28-2.16,3.51-2.65,5.43-.63,2.45-1.13,4.93-1.48,7.44-.04.32-.08.63-.12.95-.14-1.61-.31-3.21-.54-4.8-.79-5.42-2.17-10.77-4.44-15.77-1.24-2.72-2.72-5.34-4.49-7.75-.15-.2-.53-.12-.54.15-.15,4.33.49,8.61,1.68,12.77,1.19,4.18,2.89,8.18,4.76,12.09,1.04,2.18,2.14,4.33,3.23,6.48,0,.07-.01.13-.02.2,0,.11.03.19.09.24.08,1.46.13,2.93.15,4.39.02,1.45,0,2.91.06,4.36-2.77,5.17-5.3,10.46-7.59,15.85-.15-1.75-.38-3.5-.68-5.24.01-.03.02-.07.02-.12-.02-.19-.03-.39-.05-.58,1.07-2.77,1.74-5.71,2.24-8.62.52-3.06.79-6.17.8-9.28,0-1.72-.07-3.43-.23-5.14-.02-.2-.27-.19-.35-.04-3.06,5.53-3.53,11.91-3.25,18.1.03.7.08,1.41.12,2.11-.27-1.25-.57-2.5-.9-3.73-1.24-4.71-2.9-9.3-4.97-13.7-1.03-2.2-2.17-4.36-3.39-6.46-.29-.5-.58-1.01-.9-1.5-.24-.37-.56-.75-1.03-.8-.44-.05-.83.24-1.03.62-.27.5-.16,1.08-.06,1.6.94,4.64,2.38,9.19,4.27,13.54,1.89,4.35,4.25,8.48,6.98,12.36.34.49.69.97,1.04,1.45.06.08.14.1.21.1,0,.02,0,.04,0,.06,0,.07.04.12.08.15.31,1.74.57,3.48.78,5.23.02.14.04.28.05.42-.57,1.35-1.13,2.71-1.67,4.08-3.02,7.66-5.56,15.53-7.41,23.56-.23.99-.46,1.98-.67,2.97-.03.16.21.18.25.03,1.99-8,4.49-15.91,7.42-23.62.6-1.59,1.24-3.17,1.88-4.74.14-.3.29-.6.43-.9.05.02.12-.02.12-.09,0-.05,0-.09,0-.14,1.06-2.22,2.14-4.45,3.22-6.66,3.26-2.73,7.14-4.62,11.25-5.73.01,0,.02.02.04.02,7.15,3.03,15.15,4.06,22.83,2.98,2.16-.3,4.28-.78,6.37-1.4.26-.08.14-.42-.07-.47-6.25-1.55-12.62-2.86-19.09-2.84-3.29,0-6.6.37-9.79,1.19,0,0-.02,0-.02,0-.15-.06-.27,0-.34.1-1.98.53-3.91,1.24-5.76,2.16-1.82.9-3.52,2-5.06,3.29.11-.22.22-.45.32-.67,1.72-3.52,3.52-7,5.41-10.43.53-.96,1.06-1.91,1.6-2.87.06-.11.12-.21.18-.32.71-.55,1.43-1.1,2.16-1.63.05.06.12.11.23.12,1.79.19,3.6.25,5.4.19,1.48.72,3.05,1.26,4.61,1.76,1.73.56,3.49,1.04,5.27,1.41,3.54.74,7.19,1.07,10.8.78,2.04-.17,4.06-.54,6.03-1.12.24-.07.18-.41,0-.49,0,0,0,0-.01,0-.03-.14-.14-.27-.32-.26-.09,0-.17,0-.26.01-5.23-2.31-10.92-3.52-16.64-3.54,3.54-.98,6.94-2.42,10.1-4.31,2.1-1.26,4.07-2.71,5.89-4.34.17-.15.13-.5-.14-.51-.29,0-.58,0-.88,0-.06-.04-.13-.06-.21-.03-.03.01-.07.02-.1.03-4.54.02-9.09.66-13.46,1.88-4.71,1.32-9.22,3.29-13.37,5.88-1.56.97-3.1,2.04-4.54,3.21.05-.08.1-.17.14-.25.27-.48.59-.94.79-1.45.05-.12,0-.23-.08-.29.84-1.37,1.61-2.78,2.44-4.16.56-.93,1.12-1.86,1.69-2.78,1.32-2.03,2.68-4.04,4.08-6.01,2.16-3.05,4.41-6.03,6.74-8.95,2.86-1.78,5.93-3.24,9.13-4.3-.02.02-.03.05-.02.09.02.04.04.08.06.12-.12,1.62.44,3.18,1.17,4.62.77,1.52,1.69,2.98,2.65,4.38,1.83,2.67,3.98,5.17,6.62,7.07,1.3.93,2.71,1.71,4.21,2.25,1.24.45,3.13.75,3.8-.74.68-1.52-.82-3.24-1.65-4.37-1.03-1.4-2.15-2.73-3.34-3.99-2-2.1-4.21-3.99-6.59-5.64,1.91.54,3.88.9,5.83,1.18,5.04.72,10.34.72,15.15-1.14.79-.31,2.36-.89,2-2.03-.16-.53-.71-.75-1.17-.97-.59-.28-1.19-.54-1.8-.78-2.4-.97-4.91-1.68-7.46-2.14-5.06-.92-10.28-.82-15.3.28-4.39.97-8.62,2.67-12.44,5.03,2.55-3.15,5.19-6.21,7.93-9.19,1.27-1.38,2.56-2.74,3.87-4.08.19.02.4-.11.34-.35,0,0,0,0,0,0,.13-.14.26-.27.4-.41,1.7-.73,3.42-1.41,5.15-2.03.02.19.17.33.35.38,7.52,1.92,15.63,1.46,22.87-1.33,1.25-.48,3.06-1.09,3.71-2.39.08-.05.12-.14.13-.23.05-.06.07-.13.04-.21.03-.12.06-.25.07-.39ZM74.07,1.95c.03-.1.05-.2.08-.29,0,0,.01-.02.02-.03-.22,4.48-.63,9.01-2.81,13.02-.39.73-.86,1.43-1.36,2.09-.08,0-.17.01-.26.07.54-.75,1.02-1.55,1.43-2.35,1.27-2.5,1.94-5.27,2.36-8.03.23-1.49.37-2.98.54-4.48Zm-1.63,7.98c-.62,2.48-1.63,4.89-3.19,6.93-.25.33-.52.63-.79.93-.44.35-.88.71-1.32,1.07.07-.13.14-.25.21-.38.35-.6.68-1.21.99-1.83.61-1.23,1.23-2.45,1.81-3.69,1.14-2.45,2.12-4.97,2.92-7.55.1-.33.19-.66.29-.99-.19,1.86-.47,3.71-.92,5.5Zm.41-5.12c-.37,1.3-.79,2.58-1.25,3.86-.9,2.53-1.95,5-3.2,7.38-.35.67-.74,1.32-1.11,1.98-.2.35-.41.7-.61,1.05-.01.02-.03.05-.04.07,1.32-4.97,3.19-9.79,5.65-14.31.34-.62.69-1.24,1.05-1.85-.15.61-.31,1.22-.49,1.82Zm-6.61,13.07c.06-.7.16-1.39.3-2.08.28-1.37.71-2.71,1.23-4,1.07-2.64,2.57-5.08,4.17-7.43.21-.31.44-.62.66-.93-.13.22-.25.44-.38.67-.66,1.22-1.29,2.46-1.87,3.72-1.16,2.5-2.15,5.08-2.96,7.72-.41,1.33-.76,2.67-1.08,4.02-.05.04-.1.08-.15.13.03-.6.03-1.21.08-1.81Zm-26.94-3.98c.02-.39.08-.78.02-1.16.11.08.2.19.27.32.15.28.21.6.25.9.08.54.15,1.08.23,1.62.14,1.02.27,2.04.39,3.06.48,4.04.83,8.09,1.05,12.15-.17-.99-.36-1.98-.55-2.97-.64-3.23-1.33-6.45-1.6-9.74-.08-.95-.12-1.9-.11-2.84,0-.44.02-.89.04-1.33Zm-1.9,2.24c.18-.89.38-1.87.77-2.7,0,0,0-.01,0-.02-.57,3.03-.5,6.2-.17,9.24.39,3.49,1.21,6.91,2.16,10.28.27.94.55,1.89.84,2.83.12.4.24.81.36,1.21-3.17-6.46-5.44-13.62-3.98-20.85Zm3.42,17.5c-.51-1.7-.99-3.41-1.4-5.13-.81-3.41-1.35-6.9-1.34-10.4,0-1.74.17-3.46.43-5.18.08-.09.17-.17.28-.23.14-.07.28-.08.4-.04-.12.3-.16.62-.18.96-.03.44-.06.88-.07,1.33-.02.78,0,1.56.03,2.34.09,1.65.29,3.3.55,4.93.53,3.3,1.27,6.57,1.77,9.88.14.92.26,1.85.35,2.78.04.39.06.78.08,1.17,0,.14,0,.27,0,.41-.3-.94-.62-1.87-.9-2.81Zm-20.39,1.99c-2.29-3.02-4.34-6.23-6.12-9.58-.66-1.25-1.27-2.52-1.85-3.81.66,1.06,1.36,2.09,2.03,3.13,1.02,1.56,2.04,3.12,3.07,4.68,2.04,3.09,4.12,6.17,6.2,9.23.36.52.71,1.05,1.06,1.57-1.54-1.67-3.01-3.4-4.39-5.21Zm5.6,6.23c-.52-.74-1.06-1.48-1.58-2.23-1.05-1.51-2.1-3.03-3.14-4.55-2.09-3.06-4.16-6.13-6.2-9.22-1.03-1.56-2.02-3.17-3.11-4.69,2.43,2.64,4.75,5.38,6.83,8.31,2.17,3.06,4.06,6.29,5.77,9.62.49.95.97,1.91,1.5,2.84.02.04.05.08.07.13-.05-.07-.1-.14-.15-.21Zm.57.07c-.5-.84-.97-1.69-1.42-2.56-.88-1.67-1.75-3.35-2.71-4.97-1.88-3.17-4-6.2-6.38-9.02-1.25-1.49-2.56-2.93-3.96-4.28,3.35,1.92,5.64,5.37,7.73,8.51,2.55,3.82,4.83,7.8,6.81,11.94.28.59.55,1.18.83,1.76-.31-.45-.62-.91-.9-1.38Zm5.71-15.74c1.14.57,1.29,2.08,1.35,3.24.07,1.48.04,2.96-.08,4.44-.25,2.95-.87,5.87-1.86,8.67-.26.73-.55,1.45-.86,2.16.12-.65.22-1.3.33-1.94.23-1.33.42-2.67.58-4.02.32-2.69.5-5.39.56-8.1.04-1.48,0-2.97-.02-4.45Zm-1.77,16.9c.05-1.23.1-2.47.13-3.7.07-2.47.13-4.93.15-7.4.01-1.38,0-2.77,0-4.15.29-.53.64-1.02,1.05-1.47.29,5.26-.1,10.58-.94,15.77-.12.72-.24,1.44-.38,2.16-.03.14-.06.29-.09.43.03-.55.05-1.09.08-1.64Zm-.55,3.45c-.08-.61-.16-1.21-.24-1.82-.27-2.3-.44-4.62-.47-6.93-.03-2.09.02-4.23.35-6.3.16-.96.4-1.91.78-2.81.1,4.66.06,9.32-.13,13.97-.03.71-.06,1.41-.09,2.11-.02.5-.07,1.02-.08,1.52-.04.08-.08.16-.12.24Zm-4.5,4.27c-.29,4.25-1.1,8.45-2.55,12.46-.3.83-.62,1.66-.96,2.48.61-2.41,1.14-4.84,1.7-7.26.31-1.33.61-2.66.92-3.99.28-1.23.62-2.45.89-3.69Zm-2.93,8.74c.22-1.21.48-2.42.77-3.62.26-1.09.53-2.19.9-3.25.2-.58.46-1.15.8-1.66-.27,1.14-.49,2.29-.75,3.42-.31,1.33-.61,2.66-.92,3.99-.55,2.37-1.12,4.74-1.62,7.13.17-2.02.45-4.03.82-6.02Zm-4.25-9.93c1.09,3.61,1.82,7.3,2.28,11.03-.1-.6-.2-1.2-.31-1.8-.36-1.96-.8-3.91-1.32-5.84-1.03-3.8-2.36-7.5-3.96-11.09-.68-1.53-1.41-3.04-2.2-4.52,2.39,3.79,4.21,7.92,5.51,12.21Zm-1.7-2.79c1.32,3.71,2.37,7.51,3.13,11.37.22,1.1.41,2.2.57,3.3.03.17.05.35.08.53-.18-.59-.37-1.19-.55-1.78-.64-2-1.27-4.01-1.91-6.01-1.28-4.01-2.61-8-3.93-11.99-.37-1.12-.74-2.25-1.12-3.37-.24-.72-.48-1.45-.73-2.17,1.68,3.29,3.22,6.63,4.46,10.12Zm-.44,7.94c-1.66-3.96-3.02-8.06-3.71-12.31-.29-1.81-.45-3.64-.46-5.47.16.5.33.99.49,1.48.33,1,.66,2,.99,3,.66,2,1.31,4,1.95,6,1.28,4.01,2.56,8.02,3.79,12.04.35,1.13.69,2.26,1.04,3.39.12.4.25.8.37,1.2-1.58-3.07-3.12-6.16-4.46-9.34Zm-14.55,2.55c.35.41.6.93.87,1.39,1.19,2.01,2.28,4.07,3.29,6.18,2.01,4.19,3.68,8.55,4.97,13.01.37,1.27.7,2.54,1.01,3.83-.27-.73-.53-1.46-.81-2.19-.7-1.87-1.42-3.73-2.17-5.58-1.51-3.74-3.1-7.45-4.78-11.12-.46-1-.92-2.01-1.39-3-.44-.94-.87-1.89-1.36-2.8.14.04.27.15.37.27Zm4.14,16.68c-1.95-4.12-3.49-8.44-4.57-12.88-.13-.54-.26-1.08-.37-1.63-.12-.55-.34-1.19-.28-1.76.02-.17.07-.34.17-.47.15.82.38,1.63.61,2.43.27.94.57,1.87.89,2.79.65,1.87,1.39,3.71,2.16,5.53,1.6,3.74,3.3,7.43,4.96,11.14.66,1.47,1.32,2.94,1.98,4.41-2.12-3.03-3.97-6.23-5.56-9.57Zm1.71.05c-1.64-3.61-3.36-7.19-4.73-10.91-.38-1.01-.73-2.04-1.04-3.07-.3-.98-.53-1.98-.81-2.97,0,0,0,0,0,0,.02-.01.04-.02.06-.03.37.87.8,1.71,1.2,2.57.43.92.86,1.85,1.28,2.77.83,1.81,1.64,3.64,2.42,5.47,1.59,3.71,3.09,7.45,4.5,11.23.39,1.03.77,2.07,1.14,3.11.19.52.37,1.04.56,1.56.12.33.22.67.35,1,.02.11.04.22.07.32-1.63-3.7-3.34-7.37-5.01-11.05Zm5.44,9.47c-.41-5.47-.56-11.03,1.04-16.32.3-1.01.68-1.99,1.12-2.95-.52,2.41-.84,4.86-1.07,7.31-.27,2.87-.58,5.73-.78,8.6-.06.84-.13,1.67-.21,2.51-.02.28-.06.56-.09.85Zm.11,1.39c.15-.63.17-1.3.23-1.94.07-.72.14-1.45.22-2.17.17-1.47.3-2.94.45-4.41.28-2.83.53-5.66.95-8.47.19-1.29.44-2.58.75-3.85.31,5.6-.13,11.23-1.44,16.69-.34,1.42-.74,2.82-1.15,4.23,0-.03,0-.05,0-.08Zm16.84-4.13c3.2.05,6.4.08,9.6.23,3.53.17,7.06.42,10.57.81.79.09,1.59.18,2.38.28-.38,0-.76.02-1.15.02-1.83,0-3.66-.02-5.49-.07-3.66-.11-7.32-.34-10.97-.68-1.61-.15-3.22-.37-4.83-.53-.04-.01-.07-.03-.11-.04Zm4.93,1.58c-1.13-.28-2.24-.62-3.33-1,.88.11,1.77.2,2.65.29,1.82.19,3.65.36,5.47.49,3.67.26,7.36.4,11.04.41,1.57,0,3.16.03,4.74-.03-6.73,1.59-13.87,1.52-20.57-.16Zm12.19-2.08c2.93.44,5.83,1.06,8.71,1.75-.11,0-.23,0-.34,0-6.86-.88-13.77-1.4-20.68-1.54-1.61-.03-3.21-.05-4.82-.01,5.63-1.24,11.46-1.05,17.13-.2Zm-8.88-8.54c-.94-.29-1.86-.62-2.79-.95,6.03,1.43,12.23,2.17,18.42,2.23,1.38.01,2.76-.01,4.14-.07-6.53,1.56-13.4.73-19.77-1.22Zm-2.04-1c2.41.18,4.82.33,7.24.51,3.18.24,6.36.5,9.53.83,1.24.13,2.47.26,3.71.39-5.62.2-11.26-.14-16.81-1.05-1.23-.2-2.45-.43-3.67-.68Zm17.88.35c.89.26,1.77.56,2.64.89-5.79-.54-11.59-.99-17.39-1.37-1.72-.11-3.43-.22-5.15-.27-.02,0-.04-.01-.06-.02.32-.07.64-.13.95-.19,1.35-.12,2.7-.3,4.04-.55,5.03-.43,10.13.08,14.97,1.51Zm-6.88-4.66c-2.83,1.19-5.8,2.05-8.83,2.57-1.02.1-2.04.23-3.05.41-.17.02-.34.04-.5.05-1.39.12-2.79.14-4.19.1,3.04-.56,6.06-1.34,9.02-2.2,4.01-1.16,7.92-2.57,11.76-4.18,1.78-.75,3.56-1.52,5.29-2.38-2.89,2.3-6.1,4.19-9.5,5.63Zm7.97-6.18c-6.96,2.18-13.9,4.44-20.79,6.81-1.07.37-2.13.74-3.2,1.11-.4.14-.81.28-1.21.41,2.71-1.4,5.46-2.7,8.31-3.81,3.55-1.39,7.21-2.51,10.91-3.39,1.88-.44,3.77-.81,5.67-1.12.1,0,.2-.01.31-.01Zm-25.61,8.12c2.05-1.33,4.19-2.51,6.4-3.53,4.43-2.04,9.16-3.44,13.99-4.14.39-.06.79-.11,1.19-.15-6.04,1.26-11.92,3.21-17.52,5.82-1.47.69-2.92,1.41-4.34,2.19.09-.06.18-.13.28-.19Zm1.33.28c.94-.33,1.88-.66,2.82-.99,1.91-.67,3.82-1.31,5.73-1.95,3.79-1.27,7.59-2.49,11.41-3.67,1.72-.53,3.43-1.05,5.15-1.56-1.33.66-2.65,1.32-4,1.94-1.88.86-3.81,1.63-5.75,2.35-3.87,1.44-7.82,2.65-11.83,3.61-1.74.41-3.49.77-5.24,1.12-.2-.01-.39-.02-.59-.04.78-.24,1.54-.54,2.3-.81Zm35.16-8.23c-1.42-.42-2.78-1.14-4.01-1.95-2.54-1.68-4.65-3.94-6.45-6.37-1.04-1.4-1.99-2.87-2.86-4.38-.61-1.06-1.16-2.21-1.46-3.41,1.02,2.55,2.47,4.96,4.15,7.12,2.02,2.59,4.44,4.91,7.16,6.76,1.35.91,2.77,1.71,4.25,2.4-.28-.03-.55-.09-.79-.16Zm1.91,0c-.08.04-.16.07-.25.1-.02-.02-.04-.04-.07-.05-6.05-2.57-11.2-7.14-14.48-12.83-.77-1.34-1.43-2.74-2.01-4.17.23.36.48.71.73,1.06.47.67.96,1.34,1.46,1.99,1,1.31,2.06,2.57,3.16,3.8,2.18,2.42,4.53,4.69,7.06,6.74,1.44,1.17,2.93,2.27,4.46,3.31,0,0,0,0,0,0-.02.02-.04.03-.07.05Zm-5.66-9.4c1.18,1.13,2.28,2.33,3.32,3.59.51.63,1.01,1.27,1.49,1.93.14.19.28.39.42.58-4.34-3.76-8.59-7.63-12.83-11.5-.34-.31-.68-.63-1.01-.94.27.16.55.31.84.45,0,0,.01.02.02.02,2.8,1.65,5.41,3.62,7.75,5.87Zm17.54-6.55s.01.08,0,.13c-.06.22-.32.39-.5.5-.48.3-1.07.47-1.6.66-.57.2-1.15.38-1.74.54-1.16.3-2.35.51-3.54.64-2.42.26-4.87.19-7.29-.08-2.34-.26-4.68-.67-6.96-1.26-2-.51-4.04-1.26-5.63-2.62-.01,0-.02-.02-.03-.03,6.92,1.61,14.08,2.19,21.17,1.94,2.04-.07,4.09-.22,6.12-.42Zm-2.09-1.15c-6.65-.53-13.32-.98-19.99-1.25-1.29-.05-2.57-.1-3.86-.13.99-.14,1.98-.29,2.98-.39,1.58-.16,3.16-.26,4.74-.3,3.19-.07,6.39.13,9.55.56,1.68.23,3.35.53,5,.9.53.19,1.05.4,1.57.62Zm-25.04-1.54c4.7-1.28,9.62-1.7,14.46-1.18,1.73.19,3.45.49,5.15.92-4.89-.74-9.86-.87-14.8-.39-1.71.17-3.45.36-5.12.78-.04,0-.08,0-.11,0,.14-.04.28-.09.42-.13Zm9.74.97c3.6.2,7.21.44,10.81.71,1.98.15,3.97.32,5.95.5.03.01.06.03.08.04-7.22.75-14.54.57-21.71-.49-1.82-.27-3.63-.58-5.43-.93-.13-.13-.25-.27-.37-.4,3.55.25,7.11.37,10.67.57Zm-8.5,2.66c1.13,1.05,2.28,2.09,3.42,3.13,2.29,2.08,4.58,4.15,6.89,6.21,1.3,1.16,2.6,2.32,3.9,3.49.02.02.04.02.06.03.05.1.1.2.14.3.19.48.26,1.07-.02,1.49-.01-.02-.03-.04-.05-.05-5.4-3.64-10.22-8.09-14.27-13.18-.56-.7-1.1-1.42-1.63-2.15-.45-.62-.87-1.26-1.34-1.87,0-.05,0-.1,0-.15.92.96,1.94,1.84,2.91,2.74Zm2.73-37.72c.23.71.4,1.45.54,2.18.57,2.92.56,5.94.05,8.87-.45,2.57-1.33,5.05-2.57,7.34.02-.05.03-.09.05-.14.25-.67.47-1.34.68-2.02.41-1.34.74-2.7.99-4.08.5-2.78.67-5.62.54-8.44-.06-1.37-.2-2.73-.42-4.08.06.13.1.26.14.38Zm-1.4,15.52c-.22.76-.46,1.51-.73,2.26-.15.42-.33.83-.49,1.25.63-5.09,1.18-10.19,1.78-15.28.13-1.08.26-2.17.39-3.25.78,5,.45,10.14-.95,15.02Zm-1.19-11.66c.17-.82.36-1.63.58-2.43.18-.67.32-1.53.79-2.08.13-.15.3-.26.49-.26-.59,5.48-1.19,10.96-1.8,16.44-.14,1.24-.27,2.49-.4,3.73-.79-5.1-.72-10.32.34-15.4Zm7.09,17.74c3.27-.59,6.52-1.27,9.81-1.76,3.37-.5,6.76-.87,10.16-1.13,1.08-.08,2.16-.15,3.25-.2-2.53.51-5.07.99-7.62,1.38-3.36.51-6.73.94-10.11,1.25-.93.09-1.85.17-2.78.24-.89.07-1.79.1-2.68.22,0,0-.02,0-.03,0Zm21.92-1.36c-1.74.65-3.54,1.16-5.36,1.55-3.63.76-7.37,1-11.07.69-1.44-.12-2.87-.33-4.29-.62.37-.02.73-.05,1.1-.08.84-.06,1.68-.13,2.52-.2,1.7-.15,3.4-.32,5.1-.52,3.38-.39,6.73-.88,10.09-1.44,1.62-.27,3.23-.56,4.83-.88-.74.77-2.05,1.17-2.93,1.49Zm-16.52-.11c-.92.17-1.83.34-2.74.52.92-.27,1.85-.53,2.79-.76,4.21-1.04,8.52-1.69,12.85-1.93,2.19-.12,4.39-.14,6.59-.02-6.53.29-13.04,1.02-19.48,2.18Z" style="fill: #d4bd90;"/>
  </g>
</svg>