<?xml version="1.0" encoding="UTF-8"?>
<svg id="uuid-bd40c6ae-451b-4391-85e3-68b207970bc5" data-name="Слой 2" xmlns="http://www.w3.org/2000/svg" viewBox="0 0 75.62 152.79">
  <g id="uuid-c7616736-3bf7-414d-8fd5-3bfd43870a6d" data-name="OBJECTS">
    <path d="m45.92,66.53c.49-.91.98-1.83,1.46-2.75.21.06.42.11.63.12.29.02.57.04.86.05.58.01,1.16,0,1.74-.03,1.15-.06,2.29-.2,3.42-.41,2.27-.43,4.49-1.16,6.58-2.13,4.19-1.94,7.94-4.88,10.76-8.54,1.45-1.88,2.69-3.97,3.55-6.18.91-2.36,1.22-5.34-.73-7.28-1.96-1.95-4.95-1.21-7.08.01-2.32,1.33-4.25,3.19-6.02,5.18-1.94,2.19-3.76,4.5-5.59,6.78-1.79,2.24-3.55,4.51-5.29,6.79,1.56-3.29,3.01-6.66,4.26-10.09,0,0,0,0,.01,0,.26-.02.48-.21.69-.35.25-.17.49-.35.72-.53.49-.38.97-.76,1.44-1.16.46-.39.92-.78,1.36-1.18.41-.38.89-.79,1.17-1.28.06-.1-.08-.21-.17-.17-.51.23-.96.67-1.38,1.04-.38.32-.76.65-1.14.97.11-.43.17-.87.21-1.32.05-.48.1-.97.07-1.45,0-.09-.16-.11-.18-.02-.13.47-.19.95-.24,1.43-.06.47-.1.93-.08,1.4,0,0,0,.01,0,.02,0,0,0,0,0,0,0,0,0,.02,0,.03,0,0,0,0,0,0,0,.02.02.04.04.06-.02.01-.04.03-.05.05-.45.37-.89.75-1.35,1.11-.23.19-.47.38-.69.57-.02.01-.03.03-.05.04-.02-.06-.03-.13-.05-.19.99-2.83,1.84-5.7,2.51-8.62.25-.34.48-.7.74-1.04.29-.38.61-.73.94-1.08.67-.71,1.4-1.34,2.2-1.91.14-.1-.02-.29-.16-.21-.84.53-1.64,1.16-2.35,1.85-.35.34-.67.69-.99,1.06-.03.04-.06.07-.1.11.22-1.05.42-2.1.59-3.16.91-.83,1.74-1.75,2.59-2.64.99-1.06,1.98-2.12,2.94-3.2.97-1.1,1.93-2.21,2.85-3.35.9-1.1,1.81-2.21,2.57-3.41.69-1.1,1.29-2.33,1.37-3.65.07-1.19-.31-2.36-1.08-3.27-.22-.26-.47-.49-.73-.7-.03-.05-.08-.09-.14-.1-1.57-1.16-3.68-1.33-5.54-.6-2.16.86-3.65,2.72-4.49,4.83-.03-.22-.07-.44-.1-.66.02-.3.05-.6.08-.89.02-.22.05-.45.08-.67.02,0,.04-.02.06-.04.91-.89,1.79-1.81,2.71-2.69.92-.88,1.86-1.74,2.81-2.59.15-.13-.04-.37-.19-.24-1.84,1.52-3.65,3.12-5.31,4.84.06-.44.12-.89.2-1.33.3-1.8.72-3.57,1.14-5.34.03-.12-.18-.18-.21-.06-.57,1.75-.96,3.54-1.27,5.35-.12.7-.23,1.41-.32,2.11-.78-4.47-2.19-8.82-4.41-12.77-.56-.99-1.18-1.96-1.82-2.9-.22-.33-.69.05-.48.38,1.23,1.9,2.26,3.89,3.14,5.94-.15.36-.2.79-.29,1.17-.1.47-.21.94-.3,1.41-.11.51-.21,1.02-.32,1.53-.18-.88-.37-1.76-.56-2.64-.28-1.27-.56-2.53-.85-3.79-.15-.65-.31-1.3-.47-1.95-.15-.62-.27-1.26-.53-1.85,0,0,0,0-.01-.01,0-.04.02-.08.03-.11.06-.25-.33-.33-.42-.11-.45,1.08-.72,2.25-.94,3.4-.23,1.17-.38,2.35-.46,3.53-.16,2.36-.05,4.73.27,7.08.64,4.8,2.15,9.43,3.94,13.9,1.02,2.55,2.14,5.06,3.25,7.56.05.1.12.16.21.18-.47,2.52-1.1,5.02-1.83,7.48-.01-.23-.02-.47-.04-.7-.07-1.13-.23-2.25-.45-3.36-.45-2.19-1.18-4.32-2.16-6.32-.36-.73-.77-1.45-1.19-2.14,0-.14,0-.28,0-.41,0-.18-.21-.19-.31-.09-.68-1.05-1.42-2.06-2.24-3-1.49-1.72-3.23-3.31-5.18-4.5-1.08-.66-2.27-1.2-3.55-1.29-1.08-.07-2.11.2-3.03.77-1.73,1.08-2.81,3.14-2.99,5.15-.22,2.47.78,4.87,2.07,6.93,1.26,2.02,2.84,3.85,4.54,5.51,3.35,3.27,7.42,5.84,11.83,7.43.42.15.83.27,1.26.38-1.11,3.1-2.39,6.14-3.77,9.12-.07-.3-.13-.6-.19-.9-.13-.69-.23-1.39-.3-2.09-.16-1.43-.23-2.87-.21-4.31,0-.16-.24-.19-.25-.03-.1,1.45-.11,2.89.02,4.34.06.72.15,1.45.27,2.17.06.36.11.72.18,1.08.03.17.07.36.12.54-.12.26-.24.53-.37.79-.91,1.9-1.86,3.77-2.83,5.63,0-.02,0-.04,0-.06-.03-.29-.07-.57-.1-.86-.08-.59-.18-1.17-.28-1.75-.22-1.15-.49-2.28-.82-3.4-.23-.79-.5-1.57-.79-2.34,0,0,0-.02,0-.02,0,0,0,0-.01-.02-.51-1.37-1.09-2.72-1.76-4.02-1.07-2.07-2.33-4.05-3.77-5.89-.71-.91-1.46-1.78-2.26-2.61-.8-.84-1.62-1.71-2.59-2.35-.94-.63-2.07-1.02-3.21-.76-1.03.23-1.92.87-2.57,1.68-1.58,1.99-1.4,4.67-.99,7.03.83,4.67,2.2,9.49,5.23,13.24,2.71,3.36,7.03,5.76,11.44,5.34.29-.03.57-.07.85-.12-1.7,3.16-3.46,6.29-5.22,9.42-.22.29-.44.58-.66.88-.52-1.51-1.22-2.95-2-4.33-.93-1.66-2.01-3.24-3.21-4.71-.17-.2-.34-.4-.51-.6-.02-.14-.05-.27-.11-.4-.06-.11-.2-.14-.29-.08-2.21-2.49-4.81-4.66-7.67-6.37-1.61-.96-3.8-2.25-5.53-.82-1.45,1.19-1.76,3.37-1.66,5.14.23,4.06,2.94,7.5,6.34,9.51,3.84,2.27,8.31,2.92,12.69,3.32.53.05,1.06.09,1.59.14.01.03.02.05.03.08-1.59,2.84-3.16,5.69-4.68,8.57-1.3,2.47-2.55,4.98-3.73,7.51.16-.55.26-1.12.33-1.69.12-.9.16-1.8.12-2.71-.08-1.82-.49-3.63-1.13-5.33-1.28-3.39-3.61-6.43-6.69-8.38-1.65-1.05-3.92-2.02-5.76-.86-1.58,1-1.87,3.11-1.83,4.81.08,3.78,1.38,7.48,3.48,10.6,2.1,3.13,5.05,5.7,8.5,7.24.38.17.76.32,1.15.46-1.02,2.41-1.95,4.86-2.79,7.34,0-.31-.02-.63-.04-.94-.1-1.44-.42-2.87-.9-4.24.01-.08-.02-.14-.06-.18-.05-.13-.09-.26-.14-.38-1.21-3.05-3.46-6.05-6.52-7.42-1.47-.66-3.11-.84-4.65-.33-1.35.45-2.59,1.44-3.12,2.8-.67,1.72-.04,3.54.86,5.04.91,1.52,2.1,2.9,3.33,4.16,2.42,2.47,5.3,4.55,8.47,5.95.07.03.14.05.21.08.13.3.26.59.45.86.03.04.07.07.11.08,0,.05,0,.1,0,.16,0,.1.04.21.11.28,0,.16-.04.34,0,.5-.36,1.46-.69,2.94-.96,4.43-.45,2.48-.78,4.99-.99,7.5-.02.09-.04.18-.06.27,0,.01,0,.03,0,.04-.08-.31-.17-.62-.26-.92-.33-1.11-.76-2.2-1.26-3.25-1.02-2.14-2.32-4.13-3.79-5.98-1.54-1.94-3.27-3.73-5.06-5.43-.91-.87-1.85-1.72-2.78-2.56-.88-.79-1.76-1.61-2.79-2.2-.94-.53-2.02-.82-3.09-.51-.97.28-1.71,1.02-2.18,1.9-1.14,2.13-.26,4.65.69,6.67,1.72,3.63,4.41,6.78,7.66,9.13,3.26,2.35,7.11,3.95,11.11,4.44.47.06.95.1,1.42.12.08.31.15.62.21.93-.36,7.46.34,14.99,2.14,22.23.31,1.25.65,2.49,1.02,3.72.04.12.26.06.22-.06-2.35-8.33-3.31-17.01-2.87-25.63,0-.02,0-.04,0-.06,0,0,0-.01,0-.02,0-.11,0-.23.02-.34,2.84-.21,5.66-.89,8.39-1.68,2.74-.8,5.42-1.82,8.01-3.03,2.57-1.2,5.06-2.6,7.42-4.17,1.18-.79,2.34-1.62,3.46-2.49,1.1-.86,2.2-1.75,3.13-2.8.89-1.01,1.61-2.19,1.88-3.52.24-1.17.13-2.47-.47-3.52-.16-.28-.34-.52-.54-.74.05-.22-.19-.48-.46-.42-1.46-1.16-3.61-1.19-5.45-.86-1.36.24-2.7.65-4.03,1.05-1.4.43-2.79.91-4.15,1.45-2.72,1.09-5.35,2.45-7.74,4.15-3.93,2.8-7.26,6.66-8.97,11.21.06-.49.12-.99.19-1.48.48-3.3,1.19-6.54,2.09-9.72,4.78-2.29,9.39-4.93,13.83-7.82,2.27-1.47,4.5-3,6.67-4.61,1.82-1.35,3.64-2.84,4.78-4.83,1.02-1.78,1.58-4.39.13-6.12-1.62-1.95-4.36-1.06-6.21.02-2.02,1.18-3.91,2.63-5.7,4.13-1.83,1.53-3.55,3.19-5.15,4.96-2.65,2.92-4.96,6.14-6.89,9.59.85-2.46,1.8-4.88,2.82-7.27.03-.04.05-.08.06-.14,1.31-3.03,2.74-6.01,4.26-8.95,1.86-3.59,3.82-7.11,5.79-10.63,1.43.06,2.86.01,4.28-.03,1.57-.05,3.13-.12,4.7-.24,2.99-.22,5.98-.6,8.9-1.29,2.66-.63,5.27-1.5,7.72-2.7,1.21-.6,2.39-1.27,3.5-2.03,1.11-.76,2.21-1.58,3.1-2.6.82-.94,1.5-2.13,1.49-3.41-.01-1.09-.55-2.1-1.43-2.74-1.78-1.3-4.24-1.19-6.32-.99-3.4.33-6.75,1.16-9.92,2.42-.05-.02-.1-.02-.15,0-.08.03-.14.08-.2.14-1.3.53-2.58,1.13-3.81,1.8-3.45,1.89-6.61,4.31-9.31,7.16,1.33-2.36,2.65-4.73,3.93-7.11.06-.06.1-.13.12-.22Zm22.72-51.67c.76.79,1.17,1.83,1.11,2.92-.07,1.25-.64,2.41-1.31,3.44-.39.61-.82,1.19-1.26,1.76-.2.02-.39.11-.58.17-.23.08-.46.16-.69.24-.43.15-.85.32-1.28.49-.67.27-1.33.57-1.98.9,1.17-2.2,2.38-4.39,3.63-6.55.4-.7.81-1.4,1.22-2.09.29-.49.64-.99.92-1.5.08.07.15.14.23.22Zm-6.07-.67c1.7-.91,3.81-1,5.39.09-.31.45-.57.96-.84,1.42-.36.6-.71,1.21-1.06,1.81-.7,1.21-1.4,2.43-2.08,3.66-.02.04-.05.09-.07.13-.2-.5-.33-1.03-.49-1.54-.19-.61-.37-1.22-.55-1.83-.18-.59-.36-1.18-.54-1.76-.16-.51-.29-1.04-.48-1.54.23-.17.47-.32.72-.45Zm-1.02.7c.1.42.25.84.37,1.26.18.61.36,1.22.54,1.83l.53,1.77c.19.62.42,1.27.53,1.91.01.08.06.14.11.17-.77,1.41-1.53,2.83-2.27,4.26-.14-.47-.33-.94-.49-1.39-.22-.65-.46-1.31-.71-1.95-.42-1.1-.86-2.2-1.39-3.26.49-1.75,1.38-3.44,2.78-4.59Zm-2.96,15.92c.36-3.52.42-7.13.11-10.72.38.91.77,1.81,1.11,2.73.24.63.46,1.26.67,1.9.1.32.21.64.3.96.1.32.16.66.28.97-.36.69-.72,1.38-1.06,2.07-.54,1.09-1.06,2.19-1.55,3.29.05-.4.1-.81.14-1.21Zm3.6-5.17c.07-.14.15-.28.22-.41.78-.34,1.57-.69,2.36-1.01.42-.17.85-.33,1.28-.48.21-.08.43-.15.65-.22.03,0,.05-.02.08-.03-.24.3-.47.59-.71.88-.85,1.05-1.72,2.09-2.62,3.11-1,1.15-2.02,2.28-3.05,3.4-.7.77-1.43,1.52-2.12,2.31,0-.02,0-.04,0-.06,1.33-2.48,2.57-5.01,3.89-7.49Zm-7.76-16.52c.1-.45.19-.9.28-1.36.04-.2.09-.4.14-.61,1.7,4.2,2.7,8.66,3.1,13.19-.25.49-.49.98-.74,1.46-.2.39-.4.78-.6,1.17-.16.31-.36.64-.47.99-.12-.76-.24-1.51-.37-2.27-.57-3.35-1.21-6.69-1.89-10.02l.55-2.56Zm-4.44-1.12c.04-1.3.16-2.59.37-3.87.17-1.07.45-2.1.71-3.15.07.39.18.78.26,1.17.13.57.26,1.14.39,1.7.26,1.14.52,2.27.76,3.41.32,1.48.63,2.96.93,4.45,0,.04-.02.08-.02.11-.02.1.02.17.09.21.13.67.27,1.35.4,2.02.11.57.21,1.14.31,1.71-.2-.25-.39-.5-.59-.74-.39-.48-.8-.95-1.22-1.41-.74-.81-1.51-1.6-2.34-2.33-.07-1.09-.1-2.19-.06-3.29Zm2.18,13.98c-1.05-3.32-1.82-6.75-2.09-10.22.7.69,1.4,1.38,2.06,2.12.38.43.75.86,1.11,1.31.39.48.79.96,1.1,1.49,0,0,.01.01.02.02.6,3.32,1.12,6.66,1.61,10-.19-.2-.36-.41-.55-.61-.36-.41-.73-.82-1.09-1.23-.63-.71-1.26-1.41-1.91-2.1-.09-.26-.17-.52-.26-.78Zm.47,1.42c.49.57.98,1.14,1.47,1.7l1.09,1.23c.18.21.37.41.54.62.11.14.21.31.34.44.02.14.04.28.06.42.19,1.3.37,2.61.54,3.92.08.64.17,1.29.25,1.93.02.15.03.3.05.45-1.56-3.52-3.09-7.06-4.34-10.71Zm4.22,5.22c-.2-1.44-.43-2.88-.66-4.32.03,0,.05,0,.07-.02.28-.29.46-.71.64-1.07.2-.39.41-.78.61-1.17.16-.31.32-.62.48-.93.18,2.45.19,4.92.03,7.37-.11,1.67-.3,3.32-.54,4.97-.06-.45-.11-.91-.17-1.36-.15-1.16-.31-2.31-.47-3.47Zm-5.57,3.99c.02-.2.03-.4.05-.59,0,.02.02.03.03.04,2.09,3.75,3.28,8.02,3.29,12.33,0,.29,0,.57,0,.85-.09.29-.19.58-.29.86-.19-.44-.39-.89-.6-1.33-.43-.91-.88-1.82-1.35-2.71-.53-1-1.09-1.99-1.68-2.97.16-1.4.26-2.8.37-4.2.06-.76.12-1.53.18-2.29Zm-3.89-4.41c.03-.45.09-.9.12-1.36.02.02.04.04.06.06,1.29,1.35,2.42,2.86,3.38,4.46-.03.42-.04.85-.07,1.26-.06.76-.12,1.53-.18,2.29-.09,1.24-.2,2.48-.25,3.72-.35-.57-.69-1.14-1.05-1.7-.62-.95-1.28-1.88-1.96-2.79.05-.6-.05-1.23-.08-1.83-.03-.7-.04-1.39-.04-2.09,0-.67.03-1.35.07-2.02Zm-2.22-3.49c.68.54,1.32,1.13,1.93,1.74-.11.59-.11,1.23-.15,1.83-.04.69-.06,1.39-.06,2.08,0,.67.01,1.34.05,2.01.02.39.03.8.07,1.21-1.15-1.51-2.36-2.98-3.63-4.39-.03-.45-.16-.92-.22-1.36-.08-.56-.16-1.12-.22-1.69-.12-1.04-.2-2.08-.29-3.12.9.47,1.73,1.06,2.52,1.7Zm-6.29-2.41c1.15-.25,2.31.02,3.36.51.04.02.07.04.11.06,0,1.09.07,2.18.18,3.27.05.54.12,1.09.19,1.63.04.28.08.56.12.83-.32-.35-.65-.69-.98-1.03-1.51-1.55-3.08-3.04-4.79-4.35.53-.43,1.15-.76,1.82-.91Zm-3.88,7.09c-.35-2.02.12-4.11,1.51-5.66.1-.11.2-.21.31-.31,1.42,1.3,2.85,2.59,4.2,3.96.45.45.87.92,1.3,1.39-1.23.13-2.45.36-3.64.69-.62.18-1.24.37-1.84.61-.3.12-.61.24-.9.37-.2.09-.41.18-.6.3-.14-.44-.26-.89-.34-1.35Zm.44,1.66c.18-.06.36-.14.54-.21.3-.12.6-.24.91-.35.65-.24,1.31-.45,1.98-.63,1.26-.34,2.54-.56,3.84-.68.78.86,1.54,1.73,2.27,2.63.37.46.74.93,1.1,1.4-.26.02-.52.06-.77.09-.41.04-.83.08-1.24.11-.85.07-1.7.12-2.55.15-1.6.07-3.21.06-4.82.05-.5-.82-.94-1.67-1.25-2.57Zm7.29,9.49c-1.7-1.45-3.24-3.07-4.6-4.84-.44-.58-.87-1.18-1.26-1.8,1.5.09,3,.1,4.5.06.83-.02,1.66-.05,2.49-.1.44-.03.87-.05,1.31-.09.4-.03.84-.02,1.23-.12,1.67,2.24,3.19,4.61,4.54,7.05,0,0,0,0,0,0-.3-.09-.61-.04-.91-.03-.35.01-.7.03-1.06.04-.68.02-1.37.04-2.05.06-.68.02-1.36.04-2.05.06-.56.02-1.12.02-1.68.09-.16-.13-.32-.25-.47-.38Zm8.54,5.29c-1.03-.44-2.03-.92-3.01-1.46-1.62-.89-3.16-1.93-4.61-3.09.39,0,.78,0,1.17-.01.68-.01,1.37-.03,2.05-.04.68-.02,1.37-.03,2.05-.05.37,0,.75-.01,1.12-.02.3,0,.62.04.91-.07.08-.03.12-.11.12-.18.15.27.31.54.45.82.51.97,1,1.96,1.46,2.95.24.52.47,1.03.69,1.56.09.2.17.41.25.62-.89-.35-1.79-.66-2.66-1.03Zm13.21,12.36c-.28-.08-.61-.1-.88-.14-.37-.06-.74-.11-1.11-.17-.78-.11-1.57-.23-2.35-.34-.76-.11-1.52-.22-2.29-.32-.59-.08-1.2-.21-1.8-.26.79-.63,1.58-1.26,2.35-1.91.72-.61,1.43-1.23,2.13-1.86.72.18,1.5.2,2.24.27.83.08,1.67.15,2.5.22.81.07,1.62.14,2.44.21l1.25.11c.1,0,.2.02.3.03-1.43,1.56-3.04,2.96-4.78,4.17Zm10.01-16.81c.46,1.19.38,2.5.05,3.72-.06.22-.13.44-.21.67-2.43.37-4.87.72-7.28,1.18.47-.49.94-.97,1.41-1.47.89-.96,1.76-1.94,2.62-2.93.42-.48.83-.97,1.23-1.46.36-.43.75-.85,1.05-1.33.5.42.89.99,1.13,1.63Zm-10.18,7.14c.03-.3.06-.61.08-.91.05-.65.09-1.31.12-1.96.03-.66.04-1.31.04-1.97,0-.28,0-.56,0-.84,0-.2,0-.41-.02-.61.3-.26.6-.51.9-.75.98-.77,2.05-1.47,3.2-1.95,1.11-.46,2.41-.75,3.59-.39.26.08.49.19.71.32-.33.32-.6.7-.9,1.06-.37.45-.74.89-1.12,1.33-.75.88-1.52,1.75-2.3,2.6-1.41,1.54-2.86,3.04-4.36,4.51.02-.14.03-.29.05-.42Zm2.34-1.17s.09.06.16.05c2.45-.3,4.89-.73,7.33-1.13-.3.79-.66,1.55-1.05,2.3-.51.98-1.09,1.91-1.72,2.81-.53.76-1.11,1.47-1.72,2.17-.19-.02-.39-.03-.58-.04-.42-.04-.83-.07-1.25-.11-.83-.07-1.67-.14-2.5-.22-.81-.07-1.62-.14-2.44-.21-.64-.05-1.3-.15-1.95-.15,1.08-.97,2.14-1.95,3.18-2.95.04-.02.07-.05.1-.09.83-.8,1.64-1.61,2.44-2.43Zm-7.1,1.75c-.01-.29-.02-.59-.04-.88,0-.17,0-.34-.05-.5.2-.24.39-.48.59-.72,1.29-1.56,2.62-3.1,4.11-4.46,0,.1,0,.2,0,.29,0,.31,0,.61,0,.92,0,.63-.02,1.27-.05,1.9-.03.63-.07,1.27-.11,1.9-.02.3-.05.61-.08.91-.03.31-.05.64-.13.95-1.45,1.41-2.94,2.77-4.47,4.1.14-.92.22-1.85.24-2.79.01-.54,0-1.08-.01-1.63Zm-4.99,5.61c.05-.24.1-.49.15-.73.03-.16.08-.32.09-.48,1.39-1.77,2.8-3.52,4.23-5.26,0,.02,0,.03,0,.05.03.25.05.5.07.75.04.59.04,1.17.03,1.76-.02,1.03-.11,2.05-.23,3.08-1.65,1.42-3.34,2.79-5.07,4.12.16-.64.3-1.28.43-1.92.09-.45.19-.9.28-1.36Zm-5.81,6.34c.12.02.25-.02.35-.15,1.66-2.22,3.35-4.41,5.06-6.59-.02.08-.03.16-.05.24-.09.45-.18.91-.27,1.36-.16.8-.31,1.61-.43,2.42-.02.01-.03.03-.05.04-1.03.78-2.07,1.55-3.12,2.29-.65.46-1.33.9-1.98,1.36.16-.32.33-.64.49-.97Zm-.92,1.8c.78-.44,1.51-.97,2.24-1.47.97-.67,1.93-1.35,2.87-2.05.19-.14.38-.29.57-.44.05,0,.1-.02.11-.08,0,0,0,0,0,0,.67-.5,1.33-1.02,1.99-1.53.66.17,1.36.24,2.04.34l2.35.35c.76.11,1.52.22,2.29.33.39.06.78.11,1.18.16.15.02.31.05.47.08-.79.52-1.6,1.01-2.44,1.45-3.91,2.05-8.31,3.21-12.73,3.24-.26,0-.52.01-.78.01-.12,0-.25.01-.37.03.07-.14.14-.28.21-.41Zm-19.55,4.45c.03-.44.06-.89.09-1.33.04-.64.08-1.27.12-1.91,1.47,1.19,2.84,2.51,4.08,3.93.11.13.22.27.33.4,0,.07.02.14.03.22.05.45.08.89.1,1.34.03.87-.02,1.74-.05,2.62-1.61-1.37-3.22-2.74-4.84-4.11.14-.34.12-.8.14-1.15Zm-.22-3.58c-.05.75-.09,1.5-.14,2.25-.03.44-.05.89-.08,1.33-.02.27-.06.58-.04.87-1.05-.89-2.1-1.79-3.15-2.68.1-.72.08-1.46.03-2.18-.03-.39-.07-.79-.12-1.18-.03-.2-.06-.41-.09-.61-.01-.09-.02-.17-.04-.26,1.27.73,2.48,1.56,3.63,2.47Zm-6.55-3.6c.88.02,1.71.44,2.47.87,0,.01-.02.02-.03.04-.05.2,0,.35.04.55.04.2.07.4.11.61.06.38.11.75.15,1.13.06.64.09,1.29.14,1.93-.25-.22-.51-.43-.76-.65-1.34-1.14-2.67-2.27-4.05-3.36.44-.66,1.1-1.14,1.94-1.13Zm-2.09,1.4c1.67,1.57,3.41,3.07,5.15,4.56-.08,0-.16,0-.24,0-.29,0-.58.01-.87.02-.54.02-1.07.04-1.61.07-.53.03-1.07.06-1.6.11-.4.04-.89.03-1.3.14-.33-1.6-.33-3.46.47-4.92Zm-.38,5.28c.38.02.79-.06,1.16-.08.54-.04,1.07-.07,1.61-.1.54-.03,1.07-.05,1.61-.06.29,0,.58-.01.87-.02.25,0,.52.04.75-.06.5.43,1,.86,1.5,1.3,1.33,1.16,2.66,2.31,4,3.47-.26.06-.51.19-.75.27-.37.12-.74.23-1.11.33-.73.19-1.46.34-2.2.45-1.26.18-2.51.2-3.77.21-1.74-1.5-3.08-3.42-3.65-5.71Zm7.28,8.02c-1.11-.51-2.18-1.16-3.15-1.92,1.14.07,2.3-.03,3.41-.19.74-.11,1.48-.26,2.2-.45.35-.09.7-.2,1.05-.31.33-.11.77-.19,1.04-.42,1.01.88,2.02,1.76,3.04,2.63.14.12.28.25.43.37-.09.05-.18.11-.28.17-.2.12-.41.23-.61.33-.39.2-.79.38-1.19.54-.62.25-1.25.44-1.9.61-1.38-.34-2.74-.78-4.04-1.38Zm4.86,1.56c.41-.11.81-.24,1.21-.39.43-.17.86-.35,1.28-.56.21-.11.41-.22.61-.33.13-.08.3-.14.4-.26.92.8,1.84,1.6,2.76,2.4-2.1-.19-4.2-.42-6.26-.86Zm2.06-3.61s.03-.03.04-.06c.2-.9.23-1.81.21-2.73,0-.33-.04-.65-.06-.98,1.93,2.41,3.52,5.09,4.72,7.93-1.63-1.39-3.26-2.77-4.9-4.16Zm-18.32,40.85c.45.53.88,1.07,1.31,1.61,0,.06.05.1.1.13.03.04.06.09.1.13.02.05.03.09.05.14.04.11.07.22.11.34.09.28.17.56.25.84.14.49.27.99.38,1.48.21.92.38,1.86.54,2.8-2.09-2.46-4.29-4.81-6.58-7.09.05-.96-.07-1.94-.18-2.89-.06-.49-.12-.97-.2-1.46-.02-.12-.04-.25-.06-.37,1.46,1.38,2.88,2.81,4.19,4.34Zm-7.63-7.47c.89.79,1.77,1.58,2.64,2.38.09.08.17.16.26.24.01.06.02.13.04.19.04.25.08.5.12.75.07.47.13.94.19,1.4.1.84.15,1.69.27,2.53-1.47-1.45-2.97-2.86-4.51-4.23,0-.01,0-.02,0-.03-.16-.89-.3-1.79-.48-2.68-.09-.44-.17-.87-.27-1.31-.05-.21-.08-.44-.12-.66.68.38,1.29.89,1.87,1.4Zm-5.35-1.26c.74-.67,1.72-.84,2.66-.52.09.03.17.07.26.1.05.35.17.71.24,1.05.1.44.2.87.3,1.3.18.78.39,1.55.59,2.32-.03-.02-.05-.05-.08-.07-1.44-1.26-2.91-2.5-4.46-3.63.14-.21.3-.4.49-.56Zm0,6.88c-.13-.29-.27-.57-.4-.87-.46-1.11-.83-2.31-.74-3.52.04-.58.21-1.16.49-1.67,2.16,1.91,4.35,3.77,6.47,5.72-.28,0-.56,0-.82,0-.53,0-1.07,0-1.6.02-1.05.03-2.08.13-3.12.3,0,0,0-.02,0-.03-.05-.14-.26-.09-.27.04Zm.9,1.75c-.28-.48-.53-.96-.77-1.46.02,0,.04.02.06.02,1.04-.06,2.1-.12,3.14-.16.53-.02,1.07-.02,1.6-.02.45,0,.96.08,1.41.03.27.26.55.51.82.77,1.7,1.64,3.34,3.34,4.93,5.08-.12.03-.24.06-.35.09-.36.08-.71.15-1.07.22-.69.13-1.39.25-2.09.34-.67.09-1.35.14-2.03.16-.55.01-1.1-.03-1.66-.04-1.56-1.48-2.92-3.16-4-5.02Zm7.97,8.1c-1.26-.78-2.45-1.68-3.55-2.68.37.04.74.05,1.11.04.72,0,1.44-.06,2.15-.15.72-.09,1.44-.21,2.15-.36.36-.07.71-.15,1.07-.23.19-.04.41-.07.61-.12.77.85,1.53,1.7,2.27,2.58,1.18,1.38,2.32,2.8,3.44,4.23-3.27-.43-6.44-1.56-9.24-3.31Zm10.13,3.41c-.92-1.19-1.87-2.35-2.84-3.5.04-.03.07-.09.06-.15-.1-1.33-.35-2.64-.68-3.94-.06-.25-.13-.49-.2-.73,1.76,2.55,3.15,5.34,3.95,8.36-.1,0-.19-.02-.29-.03Zm3.12.66c-.62.12-1.24.23-1.86.36,0-.03,0-.06,0-.1.96-.62,1.86-1.35,2.78-2.03.27-.2.54-.4.8-.6.58.38,1.18.7,1.81.99.29.13.59.25.89.37-1.46.39-2.94.73-4.42,1.01Zm5.16-1.21s-.03,0-.04-.01c-.16-.05-.32-.1-.47-.16-.32-.12-.64-.24-.96-.38-.57-.25-1.14-.52-1.69-.81.63-.47,1.27-.95,1.9-1.41.07-.05.14-.1.2-.15.04,0,.07-.03.09-.07.99-.73,1.99-1.45,2.99-2.17.58.29,1.22.48,1.83.67.74.23,1.49.42,2.24.59.75.17,1.51.3,2.27.42.27.04.54.07.81.11-2.96,1.39-6.03,2.51-9.18,3.38Zm20.73-10.65c-1.06.87-2.15,1.69-3.27,2.48-2.25,1.57-4.61,2.98-7.06,4.21-.05.02-.1.05-.15.07-.2-.04-.43-.04-.63-.05-.37-.03-.75-.07-1.12-.11-.77-.08-1.53-.21-2.28-.36-.75-.15-1.5-.34-2.24-.55-.52-.15-1.04-.34-1.56-.48.76-.55,1.53-1.09,2.3-1.63,1.83-1.28,3.67-2.54,5.52-3.77.9.21,1.9.18,2.81.19,1.03.01,2.06,0,3.09-.06,1.79-.09,3.58-.29,5.35-.57-.25.22-.5.43-.76.64Zm3.87-6.26c.05,1.24-.4,2.42-1.09,3.43-.4.58-.87,1.1-1.38,1.6-1.96.34-3.94.58-5.93.69-1.03.06-2.06.08-3.09.08-.52,0-1.03-.02-1.55-.03-.28,0-.56-.02-.84-.02,2.09-1.39,4.19-2.76,6.31-4.1,2.19-1.39,4.39-2.75,6.61-4.09.61.66.92,1.54.96,2.46Zm-8.06-3.03c1.11-.3,2.23-.57,3.39-.63,1.08-.06,2.24.08,3.15.7-2.82,1.7-5.62,3.45-8.38,5.25.31-.94.57-1.9.89-2.84.18-.51.36-1.01.56-1.52.13-.32.29-.64.39-.97Zm-.57.16c-.08.19-.16.39-.23.58-.21.52-.4,1.04-.58,1.57-.36,1.05-.72,2.13-.87,3.23,0,.02,0,.03.01.05-1.04.68-2.08,1.37-3.12,2.08-1.73,1.18-3.45,2.37-5.17,3.57.54-2.43.81-4.93,1-7.4,0-.09-.03-.16-.08-.21,2.87-1.48,5.94-2.59,9.04-3.46Zm-16.56,14.74c.08-.74.15-1.47.2-2.21.05-.72.09-1.44.12-2.15.01-.35.02-.7.03-1.05,0-.27.04-.56,0-.83.48-.46.98-.91,1.49-1.33,1.62-1.34,3.37-2.48,5.21-3.46-.2,2.59-.6,5.15-.97,7.73-2.09,1.47-4.17,2.97-6.22,4.49.06-.4.09-.8.13-1.18Zm-.14-5.75c0,.09,0,.19,0,.28,0,.37-.02.74-.03,1.11-.03.72-.07,1.44-.12,2.15-.05.7-.11,1.39-.19,2.08-.06.54-.18,1.14-.18,1.7-.97.72-1.94,1.45-2.9,2.18-.94.72-1.92,1.44-2.82,2.23.02-.23.03-.46.05-.69.1-.05.18-.13.2-.27.82-4.12,3.05-7.81,5.98-10.79Zm-4.99-14.35c.24.5.43,1.02.62,1.54-.29.98-.58,1.96-.92,2.93-.35,1-.74,1.99-1.14,2.97-.56-1.04-1.13-2.07-1.73-3.08,0-.04-.03-.08-.07-.11-.5-.84-1.03-1.68-1.56-2.5,0,0,0,0,0,0,.41-1.08.66-2.22.92-3.34.22-.97.41-1.94.59-2.92,1.4,1.26,2.52,2.89,3.29,4.52Zm-7.77-4.57c.03-.69.08-1.38.08-2.07,0-.02,0-.03,0-.05.36.04.71.11,1.06.22,1.05.32,2.02.87,2.88,1.56-.19,1.07-.41,2.13-.63,3.19-.22,1.02-.49,2.04-.68,3.07-.89-1.35-1.81-2.67-2.78-3.96-.02-.03-.05-.06-.07-.1.07-.62.12-1.24.14-1.86Zm-.38-2.15s0,.01,0,.02c-.04.7-.03,1.41-.04,2.12,0,.51,0,1.01.02,1.52-.8-1.06-1.62-2.12-2.56-3.05.81-.43,1.7-.63,2.59-.61Zm-4.75,4.09c-.04-1.4.75-2.61,1.91-3.33.75,1.12,1.63,2.15,2.43,3.23.39.53.78,1.06,1.15,1.6-.05,0-.11,0-.16,0-.26-.02-.52-.03-.78-.04-.48-.03-.97-.06-1.45-.09-.48-.03-.97-.07-1.45-.09-.47-.03-.97-.1-1.44-.02-.12-.4-.19-.82-.21-1.25Zm4.03,6.81c-.67-.7-1.31-1.44-1.9-2.21-.7-.91-1.41-1.92-1.81-3.03.41.11.85.13,1.27.17.5.05,1,.08,1.5.12s1,.07,1.51.1c.26.02.52.03.78.04.16,0,.3.02.43-.02.3.43.59.85.88,1.28.79,1.18,1.54,2.39,2.26,3.61-.22.03-.44.06-.66.08-.47.05-.94.07-1.41.07-.94,0-1.9-.07-2.83-.21-.01,0-.02,0-.02,0Zm7.46,5.62c-.73-.38-1.44-.79-2.14-1.23-1.38-.88-2.68-1.88-3.89-2.98-.38-.34-.74-.7-1.1-1.06.85.19,1.7.3,2.57.3.48,0,.95-.02,1.43-.06.24-.02.49-.05.73-.09.04,0,.07-.01.11-.02.58,1,1.15,2.01,1.69,3.04.35.67.69,1.34,1.02,2.01.06.12.12.25.18.38-.2-.1-.41-.2-.61-.3Zm2.69-.68s-.02.09-.03.14c0,.03-.02.05-.02.08-.05.1-.1.2-.14.3-.04.09-.04.17-.02.24-.03.11-.06.23-.1.34-.05.03-.1.06-.15.08-.2.1-.2.32-.11.46-.02.03-.05.07-.07.1-.15-.09-.3-.18-.45-.27-.15-.31-.32-.62-.47-.92-.3-.6-.6-1.21-.91-1.8,0,0,0,0,0,0,.85-1.73,1.58-3.57,2.11-5.44.61,2.17.75,4.47.37,6.69Zm1.28.24c-.15.08-.29.16-.44.24.99-1.26,1.97-2.52,3.01-3.74,1.05-1.23,2.15-2.41,3.27-3.58.85.35,1.71.65,2.61.87.56.14,1.14.27,1.72.37-3.32,2.07-6.72,4-10.17,5.84Zm19.66-12.35c-1.98,1.54-4.07,2.96-6.15,4.36-.91.61-1.84,1.2-2.77,1.79-.71-.11-1.43-.21-2.13-.38-.86-.2-1.7-.45-2.54-.73.39-.41.78-.82,1.18-1.22,1.91-1.89,3.91-3.68,5.98-5.38.54.24,1.13.38,1.7.52.62.15,1.24.28,1.87.4.63.12,1.25.21,1.89.29.34.04.67.08,1.01.11.08,0,.17.02.25.03-.1.08-.2.16-.29.23Zm4.22-4.86c-.7,1.68-1.99,3.02-3.38,4.18-.53-.11-1.1-.1-1.63-.16-.65-.08-1.3-.17-1.95-.27-.63-.1-1.25-.22-1.87-.35-.51-.11-1.02-.25-1.53-.33,1.37-1.11,2.76-2.2,4.19-3.22.25-.18.51-.35.76-.53.36.15.82.15,1.2.19.49.05.99.1,1.48.14.49.05.99.09,1.48.14.41.04.86.13,1.29.12-.01.03-.02.06-.03.09Zm.2-.58c-.44-.11-.95-.1-1.39-.14-.49-.04-.99-.09-1.48-.13-.49-.04-.99-.08-1.48-.12-.23-.02-.49-.06-.74-.08.62-.42,1.24-.84,1.87-1.25.55-.36,1.1-.71,1.66-1.04.43-.26.9-.5,1.32-.78.64.97.59,2.39.25,3.54Zm-7.28-1.83c.05-.15.1-.29.16-.43.06-.13.11-.25.15-.38.74-.51,1.5-1,2.32-1.37.93-.43,2.06-.79,3.08-.47.37.11.66.29.91.5-.34.19-.66.41-.99.62-.49.31-.98.62-1.46.93-.97.63-1.93,1.27-2.87,1.94-.6.42-1.18.87-1.77,1.3.04-.26.04-.55.06-.81.03-.31.08-.61.15-.92.07-.31.15-.61.25-.9Zm-7.09,7.62c.02-.36.05-.71.09-1.06.06-.53.13-1.05.22-1.57,2.01-1.96,4.17-3.76,6.48-5.37-.02.08-.05.16-.07.23-.11.32-.19.65-.26.98-.07.32-.11.65-.14.98-.02.31-.06.67.03.97,0,.02.02.03.03.04-1.18.88-2.35,1.79-3.48,2.73-1,.83-1.97,1.69-2.93,2.56.02-.16.02-.33.03-.49Zm-5.26,3.82c.66-.92,1.36-1.81,2.09-2.69.93-1.11,1.91-2.17,2.92-3.2-.05.37-.09.73-.13,1.1-.04.38-.07.76-.08,1.14,0,.16-.04.36,0,.51.01.04.04.09.08.13-1.73,1.6-3.41,3.26-5.01,5,.05-.66.09-1.33.12-1.99Zm-.41.57c-.02.6-.04,1.19-.04,1.79-.4.44-.8.88-1.19,1.32-.86.98-1.71,1.98-2.53,3.01,1.13-2.12,2.38-4.16,3.76-6.12Zm-4-21.21c1,1.18,1.84,2.49,2.48,3.87.03.07.06.15.09.22-.11.18-.13.42-.19.63-.08.29-.17.58-.25.88-.18.6-.36,1.21-.55,1.81-.34,1.08-.67,2.16-1.02,3.24-.63-1.43-1.31-2.83-2.04-4.21.03-.01.06-.04.07-.07.44-1.09.73-2.27.96-3.42.2-.97.36-1.96.45-2.94Zm-5.22-1.88l.05-1.09c.02-.32.05-.66.04-.98.25.1.49.22.73.34,1.53.8,2.9,1.9,4.06,3.19-.13,1.09-.28,2.17-.5,3.25-.23,1.1-.54,2.18-.81,3.27-1.12-2.05-2.36-4.03-3.72-5.93.13-.67.12-1.37.16-2.05Zm-2.06-2.5c.59-.04,1.18.08,1.75.27-.01.02-.02.05-.03.08-.05.36-.04.73-.05,1.09-.01.36-.03.73-.04,1.09-.02.52-.06,1.06-.05,1.58-.92-1.26-1.88-2.5-2.94-3.63.39-.28.85-.45,1.36-.48Zm-2.12,1.31c.14-.23.31-.44.5-.61.91,1.18,1.86,2.33,2.73,3.53.86,1.18,1.66,2.4,2.42,3.65-1.05-.07-2.12-.31-3.13-.6-.53-.15-1.05-.33-1.57-.52-.49-.19-.98-.42-1.48-.59-.19-1.58-.31-3.45.52-4.86Zm-.48,5.21c.88.53,1.93.87,2.9,1.14,1.11.32,2.22.48,3.35.65.05,0,.09,0,.13-.03,0,0,0,.02.01.02,1.61,2.68,3,5.49,4.16,8.4-.23-.06-.46-.1-.68-.16-.33-.07-.65-.15-.98-.23-.72-.18-1.43-.37-2.13-.58-.66-.19-1.33-.4-1.99-.61-.32-.1-.64-.21-.96-.31-.14-.04-.48-.1-.72-.2-1.61-2.43-2.7-5.21-3.1-8.1Zm4.13,9.54c-.27-.34-.53-.69-.78-1.05.26.11.53.21.8.31.73.26,1.47.51,2.21.73.7.21,1.41.4,2.12.59.37.09.73.18,1.1.27.38.09.78.22,1.16.24.64,1.64,1.19,3.32,1.67,5.02-3.26-1.24-6.11-3.38-8.28-6.11Zm9.66,2.31c-.07.43-.14.84-.18,1.27,0,.02,0,.04.02.05-.27.6-.53,1.19-.8,1.79-.63-2.06-1.38-4.09-2.24-6.07.45-1.17.89-2.33,1.28-3.52.2-.62.4-1.24.59-1.86.09-.29.18-.57.26-.86,1.15,2.9,1.55,6.12,1.05,9.2Zm11.13-16.16c-.49.02-.98.04-1.47.08.01-.03.03-.05.04-.08,2.81-1.6,5.64-3.16,8.55-4.58.17.43.46.83.72,1.21.27.4.56.79.86,1.17.3.37.6.72.93,1.07.16.17.32.33.48.49-3.35.4-6.74.54-10.12.64Zm17.36-2c-2.21.6-4.45,1.01-6.71,1.3-.06-.05-.11-.1-.16-.15-.18-.17-.35-.35-.52-.53-.32-.34-.63-.7-.93-1.06-.29-.36-.57-.72-.83-1.1-.27-.38-.5-.81-.79-1.17.91-.44,1.82-.87,2.75-1.29,1.01-.45,2.03-.88,3.05-1.3.27.45.6.87.92,1.28.4.52.81,1.03,1.24,1.53.71.84,1.47,1.64,2.24,2.42-.08.02-.16.05-.24.07Zm7.27-2.9c-2.05,1.13-4.24,1.99-6.48,2.66-.86-.79-1.68-1.64-2.46-2.52-.41-.46-.81-.94-1.2-1.42-.33-.41-.65-.84-.99-1.24,2.53-1.03,5.11-1.97,7.71-2.8.69.84,1.41,1.66,2.19,2.42.45.44.92.86,1.4,1.26.24.2.48.4.73.6.12.09.23.21.36.3-.42.26-.84.51-1.27.75Zm6.22-7.92c.48.96.27,2.07-.25,2.99-.64,1.13-1.63,1.99-2.65,2.77-.51.39-1.03.75-1.56,1.1-.12-.16-.33-.27-.49-.39-.25-.19-.5-.39-.74-.58-.47-.39-.93-.79-1.38-1.21-.76-.7-1.49-1.44-2.19-2.21.56-.18,1.11-.36,1.67-.53,2.5-.75,5.04-1.39,7.59-1.94Zm-4.26-1.47c.08-.15.17-.3.26-.45.55.03,1.1.1,1.64.25.73.19,1.47.54,1.99,1.11-1.56.34-3.11.72-4.64,1.14.06-.2.11-.41.17-.61.08-.25.16-.49.26-.73.1-.24.21-.48.33-.71Zm-5.54.29c.02-.06.04-.11.07-.17.28-.05.56-.11.84-.16,1.17-.19,2.35-.33,3.54-.4.23-.01.47-.02.71-.02-.04.07-.07.14-.11.21-.13.25-.24.5-.33.76-.18.51-.36,1.08-.36,1.63,0,.01,0,.02,0,.03-1.44.4-2.88.82-4.3,1.28-.1-.07-.22-.01-.25.08-.45.15-.9.28-1.35.44.3-.58.56-1.18.82-1.79.18-.42.34-.84.5-1.27.08-.2.15-.41.23-.62Zm-7.03,1.94c2.12-.87,4.32-1.55,6.56-2.01-.06.17-.13.34-.19.51-.16.41-.32.82-.48,1.22-.29.73-.61,1.45-.9,2.18-.57.2-1.15.38-1.71.59-1.87.68-3.71,1.43-5.53,2.22.29-.92.65-1.81,1.07-2.67.24-.49.5-.96.78-1.42.13-.21.26-.41.4-.62Zm-7.8,5.83c.05-.32.12-.63.19-.94.04-.17.08-.34.13-.52.02-.08.05-.17.07-.25.66-.48,1.34-.94,2.04-1.37,1.44-.89,2.95-1.69,4.5-2.37-.26.47-.51.94-.73,1.43-.45.99-.79,2.02-1.05,3.08-1.82.8-3.61,1.64-5.38,2.54.04-.21.07-.43.1-.64.04-.32.09-.64.14-.95Zm-.19-1.3c-.02.08-.04.15-.05.23-.07.34-.13.68-.19,1.02-.05.34-.09.68-.11,1.03-.02.26,0,.51.01.77-.42.22-.85.43-1.27.66-1.82.97-3.6,2-5.34,3.11,2.01-2.57,4.34-4.86,6.94-6.81Zm-5.93-17.52c.04-.61.06-1.22.08-1.83,0-.11,0-.23,0-.34.03.06.07.11.1.17,1.03,1.84,1.9,3.77,2.6,5.75-.03.17-.05.35-.08.52-.08.49-.17.97-.28,1.45-.17.77-.37,1.53-.56,2.3-.71-1.41-1.48-2.8-2.27-4.15.14-.1.12-.35-.03-.42,0,0,.01,0,.01-.01.29-.41.24-1.12.29-1.6.06-.61.11-1.22.14-1.82Zm-6.31-10.38c.19.18.37.36.55.53.77.77,1.5,1.57,2.2,2.41,1.2,1.43,2.27,2.97,3.23,4.57,0,.07,0,.14,0,.21,0,.3-.02.61-.03.91-.02.59-.05,1.18-.09,1.76s-.08,1.17-.13,1.76c-.03.3-.06.61-.09.91-.02.24-.06.49.04.72,0,0,0,.01.01.02-.02,0-.04,0-.05,0,0,0,0-.01-.01-.02-1.84-3.09-3.9-6.04-6.16-8.84.18-.89.33-1.77.41-2.68.07-.76.09-1.51.11-2.27Zm-2.09-1.49c.6.25,1.14.64,1.64,1.07.07,1.66-.1,3.37-.34,5.02-.14-.17-.26-.34-.4-.5-1.38-1.66-2.81-3.29-4.35-4.81.92-.87,2.17-1.31,3.46-.77Zm-4.6,2.49c.17-.44.4-.86.69-1.23,1.28,1.35,2.54,2.7,3.75,4.12-.22,0-.43.02-.65.03-.51.02-1.02.04-1.53.06-.85.04-1.79.19-2.62-.08-.05-.98.02-1.98.37-2.9Zm.3,7.11c-.25-1.15-.49-2.32-.61-3.5,0-.09-.02-.17-.02-.26.76.25,1.59.18,2.39.16.53-.01,1.06-.04,1.59-.06l.8-.03c.14,0,.29,0,.43-.01,1.12,1.35,2.2,2.73,3.23,4.15.42.58.82,1.17,1.22,1.76-2.91-.33-5.81-.76-8.73-1-.1-.41-.2-.81-.28-1.22Zm.34,1.46c2.97.49,5.97.77,8.96,1.17.69,1.04,1.37,2.08,2.02,3.15-1.55.21-3.12.27-4.68.22-1.69-.06-3.37-.3-5.05-.55-.51-1.3-.92-2.64-1.25-3.99Zm1.38,4.31c3.19.84,6.6.83,9.86.46.83,1.4,1.63,2.81,2.38,4.25.35.67.68,1.36,1.01,2.04-.04-.02-.08-.03-.13-.03-3.7.16-7.35-.69-10.69-2.27-1-1.36-1.8-2.87-2.44-4.44Zm4,6.28c-.41-.41-.79-.84-1.15-1.29,3.18,1.61,6.79,2.33,10.34,2.21.12,0,.18-.08.2-.17.47.98.94,1.96,1.41,2.94-3.94.84-8.01-.91-10.8-3.69Zm9.07-1.34c.34-.86.58-1.77.78-2.68.08-.38.15-.77.22-1.15.62,1.9,1.1,3.84,1.42,5.82.04.25.08.51.11.76.04.29.13.56.2.84,0,.02.01.03.02.05-.22.41-.43.83-.65,1.24-.6-1.66-1.31-3.28-2.1-4.87Z" style="fill: #d4bd90;"/>
  </g>
</svg>